/* XPM */
static char *result[] = {
/* columns rows colors chars-per-pixel */
"64 64 245 2 ",
"   c #04050B",
".  c #0A0A0C",
"X  c #060608",
"o  c #04170D",
"O  c #090C14",
"+  c #070A14",
"@  c #0C121B",
"#  c #0A1616",
"$  c #12131C",
"%  c #16191A",
"&  c #150D0B",
"*  c #251B19",
"=  c #311C14",
"-  c #09350D",
";  c #052916",
":  c #15261B",
">  c #023513",
",  c #033B15",
"<  c #033E19",
"1  c #0C361B",
"2  c #0C370D",
"3  c #2B221B",
"4  c #39211C",
"5  c #141B23",
"6  c #1B1C24",
"7  c #161D2A",
"8  c #1A1E2B",
"9  c #131622",
"0  c #1D1F30",
"q  c #231F25",
"w  c #1B222D",
"e  c #182325",
"r  c #0C3723",
"t  c #163726",
"y  c #1C2433",
"u  c #1D2939",
"i  c #1A2736",
"p  c #232323",
"a  c #21222B",
"s  c #2A2626",
"d  c #232534",
"f  c #252A38",
"g  c #31362F",
"h  c #4A3A35",
"j  c #432724",
"k  c #044116",
"l  c #0C4313",
"z  c #03441A",
"x  c #034C1D",
"c  c #0C4D1A",
"v  c #0B461A",
"b  c #114814",
"n  c #05511F",
"m  c #0B521D",
"M  c #11541C",
"N  c #11400F",
"B  c #034E21",
"V  c #0A4925",
"C  c #14492A",
"Z  c #035422",
"A  c #0A5423",
"S  c #045B26",
"D  c #0A5C24",
"F  c #035D29",
"G  c #0B582B",
"H  c #12582A",
"J  c #165B32",
"K  c #0E5334",
"L  c #2C4D36",
"P  c #0B6126",
"I  c #04632B",
"U  c #0A642A",
"Y  c #056A2E",
"T  c #0B6B2D",
"R  c #0F6927",
"E  c #116D2C",
"W  c #13632A",
"Q  c #0B712E",
"!  c #05702F",
"~  c #12732F",
"^  c #046631",
"/  c #046C32",
"(  c #0A6D31",
")  c #0B6533",
"_  c #136836",
"`  c #057335",
"'  c #0A7433",
"]  c #057936",
"[  c #0C7A35",
"{  c #047639",
"}  c #097539",
"|  c #057B3B",
" . c #0A7D3A",
".. c #117531",
"X. c #127C35",
"o. c #137F39",
"O. c #17743A",
"+. c #26713D",
"@. c #474B3D",
"#. c #67463D",
"$. c #1D3940",
"%. c #413C43",
"&. c #2F5647",
"*. c #027E40",
"=. c #0C7C40",
"-. c #197843",
";. c #36764C",
":. c #31714B",
">. c #3C7C6D",
",. c #545153",
"<. c #6E574A",
"1. c #6D534C",
"2. c #476A56",
"3. c #427252",
"4. c #4F684F",
"5. c #7A685A",
"6. c #73716D",
"7. c #586164",
"8. c #90746A",
"9. c #906F64",
"0. c #06813D",
"q. c #0C833C",
"w. c #0E893E",
"e. c #0F8237",
"r. c #148236",
"t. c #12843A",
"y. c #138B3D",
"u. c #188A3D",
"i. c #579216",
"p. c #6D9232",
"a. c #579528",
"s. c #068442",
"d. c #098541",
"f. c #068A45",
"g. c #0C8B42",
"h. c #078D48",
"j. c #128D41",
"k. c #138745",
"l. c #0C9347",
"z. c #139243",
"x. c #179344",
"c. c #188D55",
"v. c #24874A",
"b. c #2B8856",
"n. c #368757",
"m. c #289756",
"M. c #37955A",
"N. c #3E8761",
"B. c #3C936A",
"V. c #3CA17B",
"C. c #5C934A",
"Z. c #769A5E",
"A. c #578C67",
"S. c #4F936B",
"D. c #73957C",
"F. c #6A8E71",
"G. c #65A37D",
"H. c #54A762",
"J. c #89954B",
"K. c #908C74",
"L. c #A78578",
"P. c #B08E7D",
"I. c #A0A56B",
"U. c #C3BC7A",
"Y. c #717E84",
"T. c #827F89",
"R. c #789B83",
"E. c #6E9B80",
"W. c #55AE9A",
"Q. c #69A985",
"!. c #76A689",
"~. c #6DB189",
"^. c #77B18D",
"/. c #5B9F9A",
"(. c #79CDC3",
"). c #958E92",
"_. c #979595",
"`. c #8F8F8B",
"'. c #BA9589",
"]. c #A79A9A",
"[. c #AD8F89",
"{. c #89AB91",
"}. c #A7A49E",
"|. c #B8A39D",
" X c #AFAE83",
".X c #9CA8A1",
"XX c #92B6A7",
"oX c #A8A8A8",
"OX c #B3AAA9",
"+X c #A5BCAD",
"@X c #A5B8AC",
"#X c #B6B5AC",
"$X c #AAB9B2",
"%X c #B4B4B4",
"&X c #BCBBBB",
"*X c #B7B7B6",
"=X c #C3968A",
"-X c #D4AF96",
";X c #DCADA1",
":X c #C5B1AC",
">X c #D7B5A9",
",X c #C5BAB6",
"<X c #D5BCB8",
"1X c #CEAEA7",
"2X c #EBBBAB",
"3X c #E6B8A8",
"4X c #F1BCAC",
"5X c #E5B8B2",
"6X c #97C2B4",
"7X c #AEC6B4",
"8X c #8BC882",
"9X c #D9C4BB",
"0X c #C0C2BE",
"qX c #E6C5A3",
"wX c #EAC1B3",
"eX c #B3BCC4",
"rX c #C8BFC1",
"tX c #8FCED9",
"yX c #B8DDE8",
"uX c #B9E6E9",
"iX c #92DFE3",
"pX c #CBC4C4",
"aX c #CBCCCB",
"sX c #C6C8C5",
"dX c #D4C9C8",
"fX c #CED1CC",
"gX c #D2D2CD",
"hX c #CDCDD1",
"jX c #C9D9D7",
"kX c #D4D5D4",
"lX c #D5D5DA",
"zX c #DCDCDC",
"xX c #D8D7D4",
"cX c #DACED1",
"vX c #E3DAD9",
"bX c #E7CDC6",
"nX c #C7E2D7",
"mX c #DFDFE2",
"MX c #E1DFE2",
"NX c #DFE1E3",
"BX c #C3E0EA",
"VX c #E1E1E2",
"CX c #EBE6E5",
"ZX c #F1E8E9",
"AX c #E5E1DF",
/* pixels */
"z Z Z ^ k. .I v T T ^ / / d.q.| q.A q.w.[ y.f.z.y.S ' A / *./ ^ / F I *.s.} Z n I w.g.0.D I I q.] {  .f.` H W w.f.{ / Y q.} w.0.",
"B ` { { F | / U q.} Z ` / / ] I ^ ] ] ' ! t.g.d.} Z ( ^ Z Z F F F Z T ^ { ' ` I ] y.0.] ` s.` 0.] ^ Y ` A U e.0./ ] s.{ =.] ` f.",
"{ | *.{ F *.*.0. .S Z ` ^ Z F k x I I A ` ] ` Y  .s.0.X.n k k x B B ( ` / | / ` w.' | w.s.*.{ 0.{ z Z ^ x I ^ { I / *.| | ] / d.",
"V F ] ( z I Y ' x , D P Z z , , , n n x ' } , v r.`  .X.x ..Z Z z B ( ] | F x Y 0./ I T [ Z F q.} < , z Z z B B Z z Z Y {  .Y S ",
"D } } Z Z Y x ( I < N T n x S I k x m n U ..S ' g.]  .I T y. .I T ..X.q.' U o.d.0.Y I Z n m Z I z P x z U z F z x Z ! / | ( U l ",
"`  .[ Z ( Y z ' *.Y c S q. .{ ` Z U ' A T D ^ d.l.f.` S  . .g.[ q.} d.[ Z I w.d.] F F Z k Y I I x I [ Z ` ` ` I x P [ | Y z B ( ",
"F I Z F ' X.U }  .^ I ] y./ F B ( o.` | I F o.U =.g.! r.! ! 0.Y r.I F B S Y y.r.Y / x z S ] ` 0.]  .y. ./ 0.T { Y e.` | I Z  .] ",
"`  .F S X.t.T U q.T B x S x Z x z ' ] 0.P A j.s.| ^ / y.I [  .` y. .[ F U u.l.r.c Q Y x S `  .|  ...U T I  .] I S t.] / Z Y u.y.",
"d.q.[ S S  .S x [ ' x z Z B Z T S Y 0. .X.y.x.f.k.J C k.-.O.-.v.m.m.c.v.m.m.l.] x k F x x  . .I m R x > Z F Z Y q.t.] | < < X.z.",
"d.I T [ F =./ I Y [ | 0./ ^ Z E q. .' X.E t.l.m.G.G.G.Q.Q.!.Q.Q.~.~.Q.E.~.Q.N.( { ` T T S Y 0.q.' S S I ` X.z M y.g.f.` S I Y d.",
" .{  .[ U s.] *. . .0.` / Z ] / }  .m o.X.E b.Q.XX+X+X@X@X$X$X+X@X+X$X+X@X.XD.:.G Z ` r.( ] ` ` q.[ S ] 0.[ S P y.l.o.S I S I [ ",
"U S T Z < ' F Z m  .` z ^ ` ` I / ` c Y U M.~.+XsXfXxXxXzXzXmXNXzXlXzXlXkXaX$XD.;.G [ Q d.g.` I T e.S `  .[ q.[  .[ S F S Z Z [ ",
"> x ` [ x T D k z ' I Z S I B I Z I Z / b.~.6XsXkXzXNXNXVXVXCXVXVXVXAXNXzXxXsX$X!.3.k.X.y.} | 0.w.u.` ] y.[ q.X.! T m S Z ~ I [ ",
", S I y...D [ U , k x ' ] ` T ` ` ! Y M.~.7XfXxXNXNXAXNXMXMXmXNXNXAXNXNXVXzXxXaX7X^.n.V n [ | f.g.z.0.0.! P  .! T P X.] I t.X.A ",
"F c n w./ k X.} z x Z y. .` d.` w.w.n.~.6X0XlXlXlXlXxXzXMXMXNXNXVXAXzXzXlXlXxXlXfX7XQ.n.E  .( r.] g.l.g.T { |  .` I w.0. .q.Q k ",
"Z Q P  .Y I  .] ^ ^ F [ w.s.*./ ] v.F.+XfXxXzXxXhXhXhXzXMXMXMXMXAXNXzXhXhXaXkXzXxXaX@XQ.n.) m r.` ^ { q.[ ` | g.w.] ` Y ^ e.I n ",
"x X.^ ` ^ | 0.` F ^ x B I Y D x F n.{.$XfXhXaXlXlXmXhXmXNXMXMXMXNXNXmXmXlXlXkXaXaXaX&X{.S.X.B / ] I Y I | ] I ! ] q./ Z F / ` *.",
"U Z I I ] Y ] T F I S F S X.X.D X.S.{.*XsX,X&XhXlXmXmXmXNXCXMXNXNXNXNXNXNXlXfX*X&XsX*X_.S._ F F ` / s.] ` Y S S S w.w.I ^ Z r.j.",
"w.( Y Z q.[ ` Y S S I |  .` T k.M.!.+X&XrXsXaX&X%XkXVXVXMXMXMXMXNXNXNXNXlX%X%XaXsXpXeXOXR.2._ Z / ^ 0.] ] Y X. .` { s.` 0.' y.r.",
"w.T [ S q.w.Y  .` ^ Z ] { F y.m.G.oX7X,X*XaXkXoX_.sXNXVXMXCXMXmXNXNXNXNXhX_.}.lXlX*XeXsXoXR.b.K F I ^ | ] ! I ] / Z /  .d.} g. .",
"*.{ 0. .y.q.I F T n z n x ' q.;.!.7XaX0X%XfXxX}.`.0XCXAXvXvXxXgXzXzXAXCXhX)._.lXxX%XeXcXeXR.S.*.F S Y I Z Z k n S ` T m r.d.f.{ ",
"*.| ] ]  .Y | ` [ n P S x Z Z :.!.XX7X*X#XfXzXoX_.sXzXvXvXdXdXfXdXvXvXvXcX_.}.lXxX%X%X%X.X!.N.^ P y.w.Y I n Q ! Z S n n [ s.*.Z ",
"B I Z S T S ` F ` I 0. .Z F x :.Q.F.F.`.#XfXzXsX*XdXdX9X<X<X9X9X<XrX<XdXcX*XrXmXjX%X`.7.7.E.;.A Y w.g.| 0.` e.0.S S Z Z ] ` ^ N ",
"..o.X.T ' U r.R T [ / ] / s.[ v.S.;.3.F.$XfXxXfXsXdXpX,X1X<XwX9X>X1X>XpXcXrXhXhXhXeXY.$.&.N.:.< I ` 0.g.l.w.0.| / ] F [ y.`  .c ",
"j.j.t.F ' I y.R b X.) ` / f. . .-.;.A..XaX*XoX#X&XdXdX<X5X3X3XwXwX5X5XpXpX,X,XoX%XhXeX/.>.:.{ Y ] q.f.| ` e.[ ' ` j.| d.y.s.0.D ",
"q.` } E X.` w.I , R t.X.Z ` 0.S =.B.!.$XgXOX`.oX#X,X<X>X;X4X2X2X5X5X>X9X,X#X.X`..XjXuXtX/.c.{ f.0.w.z.] Z z ..Q [ 0.| Y ` ] d.q.",
"{ 0.] q.X.' | } ] q.X.Z z D j.y.x.H.{.7XcXOX`.).).OX|.[.P.3X4X4X;X'.8.P. X`.K.D.XXjXuXtXW.c.*.h.l.l.l.w.e.n ` R c Z o.U Y ] q.` ",
"d.0.` I I c U y.y. .} Z S X.x.t.x.M.G.7XvXOX`.).].[.8.8.8.-X4X4X;XP.8.I.J.Z.Z.Z.{.nXyXtXW.c.{ *.h.l.t. .Q t.] I S F j.r.P ` Y k ",
"| { ' D Y Y T [ q.] f. .` I d./ S X.S.{.xX#X}.dXcX8.1.L.;X;X4X4X4X-XI.J.p.a.C.C.I.uXuXiXW.O.z S Z Y q.S S 0.g.`  . .g.q.~ q.` I ",
"I ` r.c ' q.' [ / { s.] t.q.f./ ' y.-.D.gX,X|.xXvX8.#.=XwX4X4X3X4XqXU.p.i.a.a.H.{.nXuX(.V.` , n ' ] { ` { s.w.| ` ` ` / ` P ` 0.",
"n F ( Z [ x.g.z.` Z F I r.S / F  .y.O.{.gX,X|.,XbX1X-X>X2X3X4X2X4XqXU.p.i.a.C.8X7XnXtXS.k.| n z z I S Y | ` S Z I t.^ S / { / 0.",
"/ [ S ^ t.x.y. .y.T z v Z x z z P [ k.^.gXOX`.-X>X5X5X2X2X2X4X4XqXqX-XJ.p.p.Z.8X6XjX^.J F s.| Z z R A x n z z > M u.{ I Z ] y.z.",
"w.y.' S x  .F B ~ [ P S n n z R ' ' x.Q.#XF.g 1.L.;X5X4X3X4X4X4X3XqXqX XU.J.4.L 2.XX/.+.F | ` x z E Z S n k x n [ z.q. .Z Y q.z.",
"' T Q [ n [ ^ Z n U w.y.` T I u.j.| =.3.D.2.3 h 5.'.>X4X4X3X4X3X3X3XqX-X X5.@.: $.F.S.J B T Z x ` Y Z ! Y z , Z w.l.h.` I Y Y 0.",
", ^ q.q.Y  .] 0. .o.z. .` S q.y.} ] V J &.e & & = 1.8.1X;X;X=X=X;X;X;XL.<.= o X # C +.q.' [ T / q.q.S ` { ` P ! ` f.[ S Y I P ' ",
"2 S q.u.' [  .X.v F ] I ` ` f.z. .] k H 1 o . X & h 5.[.'.=X=X=X=X=X[.9.@.& X . X o U ] ` Z I y.y.q.r.0.] ` q.w.0. .S F q.' Z c ",
"D ! [ u.[ P X.T < I B z P y.[ y.w.w.I V # @ 9 . X & & = 4 1.9.8.9.j = * & X X % # o v ] w.z n u.w.I ] ` ]  .w.z.] | Z x !  .I ` ",
"Z Q ` d./ v T y.q.| Z I S t.e.g.h.h.` 1 + 9 9 O X X . = h 5.8.8.1.h q & X X O : # X ; ] q.~ ` t.r.e.` Z P ! w.z.s.f.q.I x ` ^ d.",
"{ e.[ / ^ ` 0.q.{ | {  .` Z Z ` / f.} o + 7 y @ X O g `.OX|.[.[.|.OX).%.$   O w e X o F P w.z.` Z ` w.X.S Z | d.*.d.y.} ' ` n / ",
"Z / S Z F ` / Y { F I q.` x S ! I | ( # + 8 y 9 # O f 6.}.:X%X:X,X].T.f O O @ y w # o > Q  .`  .` ` g.x. .Z ` ] } ' c Z k Z k x ",
"z x z x ` r.I I r.b z P Z n I 0.` ] A e 8 y u w 9 + + e ,.%XZXZXrX7.0 + + @ e y i e % ; D ^ / ^ f.f.g.j. .[ M , ~ I x S Z I Z ' ",
"B I F I S Q U x r.R x Z Z [ q.l.w.Y r 5 d y i 5 @ @ # @ d `.OXOX).f $ $ @ @ 5 y i u 7 ; B S I  .h.f. .g.0.g...v P I Z ` q. ./ [ ",
"/ ] r.I z ' S z ' ' Y ` I y.e.0.w.S r $ 0 d i @ + $ 6 8 9 8 6 % 8 9 0 7 5   O 0 u u 5 ; B ^ ^ r.t.Z [ j.*./ Y  .0.] ^ / y.` q.q.",
"F I F z z ] ^ S [  .S  .y.q.S Z } ) : 6 d i 0 @   6 y d 7 @ O + @ 7 i y e   O 8 i u w @ G 0./ < , , S q.I S 0.q.` s.| ` 0.| ` q.",
"n x x ! | s.*.s.0.A m  .` n n n ' J t a d 7 8 +   0 d 8 y 7 8 0 7 u i i 0   & 8 7 y 7 6 C =.` I < n [ ] S T w.` I ` { ` ] | d.f.",
"Z z v ` r./ F | ` > l Z S Z r.I X.;.7.%.a 9 $ + + 6 d d f 0 7 y i u i u 8   X $ 9 a h 7.&.=.{ f. .^ I ] ` Z ] Q P I ` I ^ S ( / ",
"` S n ` S x Z q.q.S n x T ` z.t.( F.OX5.s %     + 6 d d u 7 7 y i i u d 7 + X X & d 5.].F._ / f.{ ^ B ` ` n Y I Z S t.' ' I Z < ",
"w. .e.Y Z Z x [ g.`  .n Y y.x.e.H G.,X].5.g .   $ 6 d d y y 0 i i i u d 8 $   . s 1.).,XR._ V ^ / S Z Z I [ ] Y [ ] j.u.t.q.I x ",
"|  .w.~ ` ` Z I q.] f.` [ [ g./ U G.#X:X_.4.: # % a d w 0 y y i y y d d a 6 $ o L `.#X#XG...z Z S ` S x Z ` q.] d.f.g.0.t.X.r.` ",
"l v Q m Y 0. .] { ^ ] *.( X.{ F } M.A.A.A.;.t % w a a 8 5 y 0 w y y 8 w w w % 1 _ M.A.A.;. .` Y x ^ { I I [ 0./ / u.0. .y.d.| s.",
"l x Y Z ` e.U ( x z x Z ( x Z B x X._ A c T C # 6 6 6 8 7 7 7 e 7 5 8 8 w % : V T q.T H F / F z , U Y ' S c Z > Z r.A S ( ( ' w.",
"T ` x x r.r.A S ..S z > Z z > < x Q ]  .c x H % 9 6 8 8 5 t 1 r C e e a a 6 e A A q.Y v S  . .Z x U T n z l k 2 l r.` } Z c r.z.",
"0.0.A z A  .Z z X.X.Z Z x k > S X.' | | ' o.W # 6 q 8 e t 1 x ' =.K e w s 6 : G I Y B n Y | { U z D D F I z x x U y.0.0.' ..} q.",
"` ^ A ' S | ^ z V ' ( ` F S Z T y.| F z F k.) : 6 s q t F S / ] h.=.t : p e : V / I x I [ Y U Z ' U x ( ] Z k I ] d.d.T I ' Z ^ ",
"Z Y | d. .q.` { ] [ | { ` ^ Y I / | B Z { ` U : * p p t / | d.` Y ] H p p * : < > n ' } ] ` / } / I z ` ] } I Y I /  .0.] S x F ",
"[ I Z z S } Y { ( S / [ ^ / { ' ] ^ Z ^ Z ' Y : * * 3 A [ ` } d.Y Z V s 3 * e z > z ..S Z Z ` ~ A ' [ ` I F I [ F F Z S q./ Z n ",
"Z x M E A ! U b , x T B z z Z r.T S z S P n , : 3 = s W U r.j.0.] B v g 3 * t v z Z ..` ' , x X.n x S Z l x r.y.{ { B < T ] I ` ",
", x ..x.r.W ' ~ x Z U z k n ..j.{ } S r.u.Z x L h ,.L H Z q.j.] 0.Y ~ ,.,.h L R Z ' e.0.q.n m ..n x Z z x D q.g.*.d. .F x / ^ f.",
"R T I g.r.m ' ` S S k > < X.j.k.d.d.' ] q./ | :.4.4.L H I / s.d.s.I t.;.4.2.L ( [ r.q.` F B } ' x ( ` B S I T d.*./ / ] ( ' Z / ",
"S r.[ d./ S F I q.` < Z , ..] d.] ` I I ] { d.q.X.D _ ` ] Y  .r.{ { / =.} J } d.q.{ s.Z Z  .Z x S / | q.! x ' [ Z B / F k v z > ",
"/  .] ` F / `  .s./ ^ [ D x T / S S x ` { F ` 0.I ` ] ` ] [ ` k x I S Y B Z ` I I Y F z ] [ z Z [ ` ` r.Y z T n > Z Q S x z x - ",
"x ` Z n v z B U { F ` d.' , x Z z I [ Y x n Z ' ! Y Z S / / z x n [ I ' B < / B k z > n [ c , Z [ ' Z X.S n x z D ' c n x x z z ",
"2 ' T , v ~ Z D  .F Z I Z k B ' n T ` ` I / I Q q./ x U x Z S ' I w.y.~ ' Z ' ' z n > > F S B Z D z z r.` [ P S [ U z S x I n [ ",
"N P b v , U D x r.' x x k ~  .w. .I ` / ^ d.w.t.T ` B Z > Z ^ ` [ g.[ c T t.' x z Y 2 > < Z ( T B > A q.0.g.[ x Z Z z ` q.` I E "
};
