/* XPM */
static char *_dc7f5ad89be4dc2b0d78eabe4d12ce004jMOHcGh4dMcUN4[] = {
/* columns rows colors chars-per-pixel */
"64 64 223 2 ",
"   c #023C16",
".  c #023A15",
"X  c #3E2C1F",
"o  c #3F201F",
"O  c #3B1F23",
"+  c #1D222D",
"@  c #2D2526",
"#  c #23242B",
"$  c #2A2629",
"%  c #2C2929",
"&  c #2A2828",
"*  c #342424",
"=  c #3C2422",
"-  c #332B26",
";  c #3B2B24",
":  c #342D29",
">  c #3C2B2A",
",  c #3D3227",
"<  c #2C2E34",
"1  c #3D3432",
"2  c #36363A",
"3  c #2E2F35",
"4  c #44251E",
"5  c #462A1D",
"6  c #4B2C1D",
"7  c #482719",
"8  c #502F1C",
"9  c #4D321B",
"0  c #4E391D",
"q  c #47331E",
"w  c #563617",
"e  c #583716",
"r  c #5C3C16",
"t  c #53341A",
"y  c #583719",
"u  c #543A1A",
"i  c #5B3C19",
"p  c #573816",
"a  c #603F16",
"s  c #603F19",
"d  c #432521",
"f  c #452A21",
"g  c #4A2C21",
"h  c #432D2C",
"j  c #4C3122",
"k  c #43332E",
"l  c #4A3727",
"z  c #533322",
"x  c #543D23",
"c  c #5B3D22",
"v  c #563F2E",
"b  c #423634",
"n  c #4A3A35",
"m  c #473B38",
"M  c #02441A",
"N  c #034B1D",
"B  c #074819",
"V  c #0D521C",
"C  c #104916",
"Z  c #024E21",
"A  c #045422",
"S  c #095421",
"D  c #055B26",
"F  c #0A5C24",
"G  c #025E29",
"H  c #0B5D2D",
"J  c #125D27",
"K  c #1C5E37",
"L  c #1C4D2D",
"P  c #2F4936",
"I  c #04642C",
"U  c #0A652A",
"Y  c #05692E",
"T  c #0B6C2D",
"R  c #096126",
"E  c #11732F",
"W  c #036C32",
"Q  c #096D32",
"!  c #086935",
"~  c #186B36",
"^  c #057335",
"/  c #0B7434",
"(  c #057936",
")  c #0D7B35",
"_  c #04763A",
"`  c #0B7538",
"'  c #057B3B",
"]  c #0B7D3A",
"[  c #117431",
"{  c #127D35",
"}  c #17773C",
"|  c #0F6C2B",
" . c #25613B",
".. c #37663F",
"X. c #5F4117",
"o. c #5E4119",
"O. c #644216",
"+. c #694715",
"@. c #6C4A16",
"#. c #644319",
"$. c #68471A",
"%. c #66491D",
"&. c #6C4B1B",
"*. c #714E1B",
"=. c #704E17",
"-. c #74521C",
";. c #79561D",
":. c #7B591E",
">. c #564224",
",. c #5C4224",
"<. c #52412F",
"1. c #4A413A",
"2. c #534435",
"3. c #624422",
"4. c #6C4B21",
"5. c #664926",
"6. c #704F20",
"7. c #755322",
"8. c #795623",
"9. c #7B5924",
"0. c #614A38",
"q. c #3A3E44",
"w. c #363B42",
"e. c #463E41",
"r. c #3D4346",
"t. c #355B43",
"y. c #027E40",
"u. c #1C7945",
"i. c #356946",
"p. c #267A46",
"a. c #316F4B",
"s. c #42464A",
"d. c #454A4E",
"f. c #474747",
"g. c #534B44",
"h. c #554D48",
"j. c #44574C",
"k. c #52584B",
"l. c #4A4E52",
"z. c #474C50",
"x. c #4C5154",
"c. c #4A5855",
"v. c #525555",
"b. c #5B5551",
"n. c #545956",
"m. c #525559",
"M. c #565B5A",
"N. c #5A5D5B",
"B. c #5B5B57",
"V. c #615C58",
"C. c #605B4F",
"Z. c #5C615D",
"A. c #57695E",
"S. c #4C785A",
"D. c #4B6A54",
"F. c #64645E",
"G. c #6A625E",
"H. c #5A5E61",
"J. c #5E6362",
"K. c #5E6A63",
"L. c #626562",
"P. c #656A64",
"I. c #6B6B65",
"U. c #666B69",
"Y. c #6B6E6B",
"T. c #636568",
"R. c #726E68",
"E. c #6D726C",
"W. c #6B7A6E",
"Q. c #6C7167",
"!. c #72736D",
"~. c #77776E",
"^. c #6B6F70",
"/. c #6E7371",
"(. c #697A70",
"). c #727673",
"_. c #797671",
"`. c #757A74",
"'. c #7A7B75",
"]. c #767A78",
"[. c #7B7E7B",
"{. c #737778",
"}. c #805C1F",
"|. c #805D27",
" X c #866329",
".X c #8A6725",
"XX c #06833D",
"oX c #0C833C",
"OX c #0E873C",
"+X c #12843B",
"@X c #138A3D",
"#X c #16873A",
"$X c #068341",
"%X c #098541",
"&X c #0C8B43",
"*X c #068A43",
"=X c #1B8344",
"-X c #188648",
";X c #0E9246",
":X c #159347",
">X c #2C864F",
",X c #428055",
"<X c #5C8A6B",
"1X c #6D8876",
"2X c #7C827C",
"3X c #79867B",
"4X c #6C8A70",
"5X c #81837E",
"6X c #7E7F81",
"7X c #7E8581",
"8X c #838582",
"9X c #858985",
"0X c #898A85",
"qX c #868B88",
"wX c #8A8C8A",
"eX c #8A8582",
"rX c #8D918C",
"tX c #87988B",
"yX c #91938D",
"uX c #8E9B91",
"iX c #929491",
"pX c #979B96",
"aX c #A3A6A5",
/* pixels */
"M A A Y oXoXI B T T I ^ W OXoX' ] F oXOX) @X&X;X#XD / A W $XW W W G I y.$X/ A N I OX&X] F I I OX( ^ ] *X^ J J &X*X_ W U +X/ oXXX",
"Z ^ ^ ^ I ' W U oX` A ^ W W ( G W ' ( / / @X&X$X` A Y W Z A G I G A T Y _ / ^ I ( OXXX^ ( $X^ XX_ I Y ^ A Y oX$XW ( $X( XX( _ $X",
"_ ' $X_ G ' ' $X] A A ^ I A F M N I I D ^ ( ` W ] ' %X) N M M N M A / W W ' W ^ OX) ' OX$Xy.' XX( M A I N I W _ G W ' ' _ ( W $X",
"S H ( Q M I Y Q N   F R A M . .   N N N / `   B +X^ ' [ N [ A A M N T ( ( G Z U oXW I Y ) A G ] /   . M A M N Z A M A Y ( oXI F ",
"F / ^ S A Y N Q I   C U A N G I M N V N U E D / &X' oXI Y @XoXI Y [ ) oX[ U ] oX' W I A S V A I M F N M U M G M N D Q W ( / U C ",
"^ ] ) A W Y M / ' Y C D oX] ^ ^ S U / D T D W OX;X*X^ D ) ' &X) oX] oX) S Y @X%X( G G A M I I I Z I ) A W ^ ^ I N I ` ( I M Z T ",
"G I A I / { Y ` ] W I ` @X^ G Z Q { ^ ' G G ] Y $XOX^ +XQ W oXY +XI G A A Y @X+XY W N M D ^ T oX( ] OX) W oXW ` Y { ^ ' D A ( ( ",
"W ] I D { #XT I oXT A N D N Z N M Q ( OXG F @X' ' Y W #XU ) ' ^ @XoX] D U @X:X+XN T I N D ^ ] ' ) E U Y I ( _ I D #X( ^ A W @X@X",
"$XoX) D D ] D N / ` N M A Z S E D Y oX+X[ @X:XXX( M M / I G I oX;X*XXX) @X;X*X^ N M D N Z ( ' Y S U B . A I A Y oX+X( (     { ;X",
"%XG Y ) D ] W I Y ` ] ' W I A T oX( / { | -X:X=X=Xp.~ u.=X>X=X=X:X-X} H =X-X! H ` ! Y T D Y ' OX` G A I / ) M V @X&X%X^ D I Y oX",
"XX_ ] { Y oX_ ' ] ' ' ^ W A ^ Q } p...>X,XS.1X3X3X3X`.3XtXuXuXuXuX7XW.d.M.Z.v.x.j.P  .~ K ~ ! Q +X{ G ( XX` D R +X&X] G I G I ) ",
"Y F T A M / F A S ] ^ M Y } u.a.1XtXyXrX).J.Y.[.8X!.B.N.5X8X0X0X0X0XY.l.9X9X8X'.!.B.n.r.c.A.j.t.i.S.K / ] { oX) ( ] D G D S A ` ",
". N / ) N Y F M M / ~ K i.S.3XuXpXpXiX2Xs.m.[.[.).Z.v.E.`.E.E.).!.U.N.H.7XE.E.'.U.q.m.[.5X5X9X2XN.n.j.a.a.p.p.} / Y V G A [ R ` ",
"  A I @XE F ) ~ L i.<X3XW.s.l.'.2X`.'.E.l.].'.P.N.H./.E.J.M.Z.J.Z.s.x.^.`.L.P.P.m.l.].2X`.'.[.[.Y.L.x./.n.k.K.D. .J { ` I +X{ F ",
"G N S =X} L >X<X3XrXpX8XE.2 w.Z.P.L.).Y.z.U.).L.l.U.U.Y.J.m.z.r.q.m.T.m.L.L.M.v.].].`.!.E.E.P.N.J.J.wX0X!.'.V.q.r.j.i.` ` ] T M ",
"S ~  .<X4XW.3XqXwXwX8X`.P.x.M.Z.v.s.J.[./.].).x.N.8X[.).`.`.Y.v.r.6XwX{.Y.Y.).Y.M.l.L.L.Z.L.d.s.{.9X8X).P.I.N.l.Y.P.r.P P } U Z ",
"t.S.(.wXyX`.{.'.`.Y.U.L.m.).'.).L.s.m.E.'.[.!.d.d.U.'.Y.I.I.I.M.< v.0X!.I.E.'.).M.z.M.U.m.l.v.L.).).Y.Z.Z.P.N.`.8X`.m.U.[.K.t.K ",
"[.wX[.[.[.E.H.J.Z.l.l.Z.U.).U.U.Q.P.M.l.P.Q.P.h.m 2 f.g.g.2.2.2 $ h 0.2.h.B.F.v.s.L.E.{.5XL.r.'.{.L.P.N.N.7X[.).E.E.U.8XiX].P.s.",
"U.5X'.`.`.).P.d.l.M.x.x.x.M.N.J.L.P.Z.2 1.m k j 9 6 g d f g 5 * * 5 6 5 j j l b e.h.F.P.I.J.w.8XiX{.m.L.U.`.U.Z.P.).{.wX5X`.!.I.",
"Z.Z.U./.U.Z.N.[.8X2XE.P.L.v.q.q.r.f.1.l g 6 7 4 5 5 4 o 4 5 5 = = 5 6 4 5 6 7 d d g l 2.g.f.s.wXiX{.l.m.P.U.Y.Y.Y.wXiX'.!.`.!.E.",
"x.s.x.m.z.s.m.8X`.E.E.U.N.2 3 m l 9 6 5 6 5 5 d 4 4 4 o 4 5 5 = * 5 6 5 d 5 5 5 o 4 5 5 g l h._.R.G.b.s.{.yXiXwX^.L.).E.Y.{.E.U.",
"J.{.[.`.N.J.E.E.v.l.d.z.s.3 f g 5 6 5 4 5 5 5 d 4 4 4 4 5 6 5 @ % 9 t 6 5 6 6 5 d 4 5 5 4 5 j z j g j l b.I.E.Y.l.B.E.rXiXiXwX2X",
"[.2X).!.U.!.).!.Z.z.2 1 1 6 6 5 4 5 5 4 5 5 5 d 5 6 6 5 t r 9 # $ t w 6 5 t i t 4 5 6 5 4 5 6 7 6 4 6 6 j n h.F.M.d.U.0X8X2X2X2X",
"U.E.P.P.E.!.E.I.b.2.j d 5 6 5 4 4 5 5 4 6 t t 6 s O.e 5 r a 9 # $ i e 5 5 s a i 5 t s t 4 6 6 6 5 5 6 6 6 g l 2.f.Z.9XE.P.U.E.W.",
"n.L.L.I.P.F.C.n j 9 6 4 5 5 5 5 4 6 6 5 t r r 9 #.O.e 5 r O.t # $ i a 5 6 #.O.r 5 s &.t 4 t i t 6 4 6 y 6 4 d 6 6 v I.n.x.n.J.K.",
"r.s.d.N.h.<.x 4 6 6 6 4 d 5 6 5 5 i t 5 r O.O.6 O.r 5 5 r r 9 # $ i O.t 9 O.O.i 5 O.-.s 5 i &.s p 5 t r y d = 9 6 d v l 2 d.N.N.",
"[.J.l.f.x t 9 4 5 6 6 d 5 6 t 5 5 i i 5 i #.#.6 e e 5 6 r e 9 # $ u r i 6 O.O.5 d &.@.r 5 #.;.+.r 6 r O.4.d 4 t 6 d t u C.[.'.9X",
"'.'.E.k.>.t 6 4 6 t 5 d t i s 6 6 r i 5 t &.i 5 t e %.t r r 9 # # t r #.6 O.O.d d &.+.p f 7.-.O.r 5 a +.4.5 6 t 5 = t u 5.~.).).",
"!.`.E.g.t t 6 4 t t 4 d O.;.#.t t a e 5 i &.i 5 t #.-.t s s 9 # # 9 i #.t O.O.d d &.O.t f 8.-.O.t 5 a +.&.6 5 y 5 5 i p c !.E.Q.",
"!.!.I.1.9 9 6 4 y i f d $.-.#.y t a t f 4.O.r 5 i :.&.6 s r 9 # $ t t t O.@.O.y f &.O.t f 4.-.&.6 5 O.+.-.f d i 6 i o.p c Q.E.E.",
"L.P.N.m f 5 5 = t i d = x u 0 f ; q = = x 0 q d 3.;.#.6 i p X $ q e t 9 O.+.O.i f x u X = >.>.,.; * q u u = = t d j l q <.Y.Y.Z.",
"E.`.F.1 * @ @ * ; , - # $ $ # # # # + # # # $ % l i $.6 e t $ # t O.p 6 #.+.r , % $ $ # # # $ # # + $ $ $ $ : ; $ # $ 3 V.8X[.n.",
"iXrXI.1 * * @ * u #.>.- - : % $ % : - $ % $ $ f y a &.6 p 9 # # u +.O.t t O.O.t = - - % # $ % - - % - - % d 7.#.- $ % 1 U.2X5X3X",
"U.`.F.b 5 9 5 4 a =.&.j #.$.u 5 t %.#.5 u t d f s @.&.5 w t $ $ i +.r e z &.O.r 6 o.X.9 = 9 u X.i z O.O.t d *.}.i 6 t x I.].E.).",
"N.Y.V.k 6 t 6 5 a -.%.z #.O.a t O.=.$.5 s @.i 5 i -.#.6 p r 0 & t O.r r z 7.O.r 6 $.+.t 4 p O.O.r z O.O.5 4 $..Xs 6 e ,.R.].).Q.",
"Z.U.V.k 6 t 6 4 O.;.i f e O.a 6 #.-.O.5 #.@.O.5 #.-.O.6 a O.u $ t +.O.r z &.@.r 6 #.#.i 5 r O.r r z O.e d 4 $..X$.6 u c I.{.U.P.",
"n.N.b.k 6 t 5 4 O.9.$.f p O.a 6 #.-.i 5 &.@.r 5 #.&.O.6 r O.9 $ 9 +.O.t c &.@.O.6 $.$.i d O.O.r i z #.a 6 d #..X$.6 i ,.L.{.U.E.",
"m.x.f.h 5 t 6 5 i -.8.g t O.e 5 O.*.f d &.@.r 5 #.#.t 6 r r 9 $ t +.O.g 7.@.@.O.g 7.=.a f a O.O.y z O.O.%.f %..XO.6 i 5.eXpXiXrX",
"iXpX).b 6 t 6 5 e #.8.g t r r 6 O.-.6 5 O.@.a 5 #.#.5 5 a r 9 $ q O.a g 9.=.+.a g 8.-.a d r +.O.j f r +.&.j |.-.a 9 r ,.'.8X`.).",
"2X5X).n 6 t 8 5 i O.7.g t e r 6 #.-.i 6 O.+.O.5 #.&.5 6 O.e 9 # $ u a f 9.:.+.r g 9.-.a d i +.O.t 5 6 O.$.z  X=.r t r ,._.E.P.E.",
"E.Q.I.n 9 t 6 5 s O.7.g y e r 6 &.;.i 6 r +.O.5 O.O.t s O.e 9 # # t a g 7.;.@.e t 9.;.r f &.@.+.a 5 t O.$.z  X&.r t o.3._.U.P.).",
"Q.!.I.n 9 t t 5 t &.8.z 4.i r t &.=.%.6 e +.O.5 O.O.t O.O.e 9 # # t O.i z &.+.t z &.-.O.f $.-.O.a 5 s =.r g  X&.t i O.,._.P.Z.P.",
"Q.U.L.n 9 t t 5 y *.7.z 4.O.a t O.&.4.t e +.O.6 O.i f i O.r 9 # # 9 O.r f ,.O.6 c +.@.r d i &.r i 5 #.;.t g  X&.5 6 o.,.Y.P.M.z.",
"J.z.s.1 6 6 t 5 i -.4.g i &.#.6 t -.7.t r +.O.g O.3.% ; O.O.t # # t a t * % 9 6 7.@.O.y d O.O.r O.6 #.-.t f  X&.4 d i ,.!.[./.U.",
"m.H.N.b 6 8 9 5 i -.6.5 i -.O.5 t -.8.t r +.a f t l $ $ 0 O.i # # t r 5 # $ ; g -.@.O.y d a e e O.t &.&.t f 9.&.5 d i ,.'.`.2XqX",
"wXiXI.k 6 t 6 5 t $.*.5 i ;.#.6 t =.7.t r +.a f - q q * - X.X.$ # t e % ; x & - #.+.O.O.d t e t t 8 &.i t f 7.&.5 d e ,.'.).U.`.",
"`.'.V.k 6 8 6 5 t +.*.6 i ;.#.6 r $.c 5 r +.a f l q 5 = , r i $ # t r % ; >.& - -.@.O.O.d i @.r 6 6 $.r e 6 3.#.6 d t >.'.2XP.E.",
"E.E.b., 5 8 5 5 e +.7.6 i ;.#.6 a #.c 5 e +.O.z 7.o.9 5 i O.t # # t a u j u 0 9 %.=.@.O.d i ;.&.#.8 i #.r 5 f i t t 6 x !.7XP.J.",
"L.Y.k.P q t 5 5 r @.7.g i *.#.9 a O.4.y r @.#.z 9.&.t t O.O.t # $ u r r t O.+.#.t i @.$.d f 8.-.-.t O.#.i = d r 9 i e c _.wXU.d.",
"x.L.g., 6 t 6 5 r @.7.j e O.O.9 a O.3.t r +.&.z 7.$.t i O.r q # # t a O.t O.@.$.6 p +.#.d f 8.-.-.t #.@.a d d i 6 i e c eXaXqX).",
"^.l.1 ; 6 t 6 6 O.O.*.t e O.O.6 O.O.z t e +.-.y 7.@.O.t a t $ + $ t O.i 6 O.+.a 6 O.+.y d #.:.-.-.t O.-.O.d i #.g i e c _.qX).E.",
"E.L.m d 5 6 5 6 r r %.f 9 i i 5 u u j 9 9 O.7.z 4.=.#.t a t # + 5 p O.6 f a O.p 5 i X.9 = i #.4.,.f u &.i d O.%.- f t x R.2XU.E.",
"L.N.b * * = 4 = q q : # $ $ $ # $ # # $ # % >.d u ;.&.6 r t # # 9 e r d d e O.q * $ $ $ # # $ & # # $ & $ * >.: + # # 3 Y.2XQ.W.",
"F.N.f.* @ * 5 * % % & # + + $ # # # # # $ & : = 9 7.%.6 r t # $ 9 e r d d i O.d = $ # + # $ $ & $ # # # + % >.% + + + < Y.2XE.W.",
"P.I.V.> * X 6 f 3.o.u ; - ; o.6 i o.5 t i o.5.f 5 6.z 5 i 9 # # t r r d d i r d g u 9 O = i o.&.i 5 u t q d c 0 % - 5 1 Y.`.L.P.",
"Y.Z.N.k 5 9 6 6 *.O.a j i i &.t O.#.t t O.@.&.5 f &.9 5 i 9 # # t O.O.f c i t d z r t O d O.O.-.O.6 r r O.d f i 6 u r c I.H.l.l.",
").M.q.> 6 9 6 5 &.#.r 6 #.&.#.6 i r t t O.@.&.f g O.a 6 i t # # 9 O.O.f z i p 6 &.O.t 5 d #.*.#.u 5 r O.#.f i O.6 o.O.c _.wX[.).",
"rX[.v.h 5 6 5 5 #.-.O.5 #.-.O.6 e i t t #.;.$.f #.O.r 6 y 9 # + - i O.5 j t e 6 *.+.O.i 5 #.-.r t 5 O.+.O.f o.O.6 o.O.,.!.9X'.2X",
"3X`.B.k 5 6 5 5 #.:.#.t #.=.O.6 a O.t y &.;.O.6 &.r t 5 y t $ + $ u O.t 5 6 e 9 &.O.&.#.f &.@.O.o.6 O.@.o.d i O.6 i O.3.R.2X!.).",
"E.Y.b.h 6 t 6 5 #.;.&.#.$.O.e 6 O.i t i :.&.6 5 #.r r 6 y t 5 + # t O.r 5 f i t O.&.&.O.f %.@.@.O.6 O.@.i d i a 5 i O.>.I.].I.Q.",
"E.P.h.h 6 t 6 6 a @.*.y O.O.p 6 a e t 4.*.O.5 5 r r O.t t e 9 # # 9 O.O.d 5 O.r 8 7.=.O.d y +.@.O.5 #.;.i d o.O.5 i O.,.!.{.J.L.",
"qX].e.> 6 t t 6 a O.#.6 a O.p 6 O.a y c s O.t t 6 O.#.y r O.i # # t O.O.5 t +.O.6 $.;.#.d 5 O.@.O.g -.-.r d o.O.f 9 r ,.0XaXqX2X",
"'.`.v.1 6 w e t a r e 6 a O.t 5 r r y t a O.r 5 5 #.-.t r O.i $ # t O.e 5 r O.r 6 O.=.#.= d O.@.r g 8.@.r d r i d f e ,.!.8X).).",
"W.E.Z.b 9 p r t r e p t O.O.t 5 t p t r O.r e 5 6 O.O.t p r u ; $ 9 r t 5 p e p e e e i = d O.+.t f 7.O.e d t p 4 d e ,.I.P.P.E."
};
