/* XPM */
static char *_a08aee7dc9146e09e86b646d90558f9jmsCZk915AaWDwwk[] = {
/* columns rows colors chars-per-pixel */
"64 64 176 2 ",
"   c #001704",
".  c #001B05",
"X  c #001F08",
"o  c #062306",
"O  c #0D2A05",
"+  c #01240A",
"@  c #012B0D",
"#  c #0A2F0B",
"$  c #132E05",
"%  c #04310E",
"&  c #0C330B",
"*  c #0D3A0D",
"=  c #163305",
"-  c #193403",
";  c #163907",
":  c #193A06",
">  c #143708",
",  c #133D0C",
"<  c #002F10",
"1  c #013412",
"2  c #013B15",
"3  c #093C11",
"4  c #013E19",
"5  c #11410F",
"6  c #1A440D",
"7  c #1C490E",
"8  c #034116",
"9  c #0B4213",
"0  c #074917",
"q  c #0D4B16",
"w  c #01441A",
"e  c #0A4619",
"r  c #014B1D",
"t  c #0B4D1B",
"y  c #114712",
"u  c #114C15",
"i  c #02511F",
"p  c #0B531E",
"a  c #0A5A1E",
"s  c #14561D",
"d  c #185419",
"f  c #11591F",
"g  c #014D21",
"h  c #084E20",
"j  c #015422",
"k  c #0A5321",
"l  c #015B25",
"z  c #0A5B24",
"x  c #005728",
"c  c #015D2A",
"v  c #085D28",
"b  c #115B22",
"n  c #026127",
"m  c #0B6126",
"M  c #02632B",
"N  c #0A642A",
"B  c #026B2D",
"V  c #0B6C2D",
"C  c #116326",
"Z  c #186623",
"A  c #186827",
"S  c #126729",
"D  c #126B2C",
"F  c #04712F",
"G  c #0C722E",
"H  c #1F7127",
"J  c #14742E",
"K  c #16792E",
"L  c #1C7A2F",
"P  c #016631",
"I  c #016C32",
"U  c #0A6D31",
"Y  c #016E39",
"T  c #027335",
"R  c #0B7433",
"E  c #027A36",
"W  c #0C7B35",
"Q  c #02753A",
"!  c #097739",
"~  c #047C3B",
"^  c #0A7D3B",
"/  c #127331",
"(  c #137C34",
")  c #1A7C32",
"_  c #107E39",
"`  c #226F24",
"'  c #017D41",
"]  c #058137",
"[  c #0C8237",
"{  c #05833C",
"}  c #0B843C",
"|  c #058B3D",
" . c #0C8B3D",
".. c #148236",
"X. c #1A8234",
"o. c #1D8B37",
"O. c #13843A",
"+. c #1A8739",
"@. c #138C3D",
"#. c #1A8C3B",
"$. c #0C913F",
"%. c #14923E",
"&. c #1B933E",
"*. c #1F993F",
"=. c #21953D",
"-. c #229A3F",
";. c #008043",
":. c #048042",
">. c #048343",
",. c #028245",
"<. c #098341",
"1. c #098442",
"2. c #0E8740",
"3. c #068844",
"4. c #058A44",
"5. c #0B8943",
"6. c #0B8C43",
"7. c #0F8D42",
"8. c #098944",
"9. c #0A8B44",
"0. c #098C47",
"q. c #018649",
"w. c #018949",
"e. c #048B49",
"r. c #048D4B",
"t. c #068E4A",
"y. c #038F4C",
"u. c #098F49",
"i. c #118B40",
"p. c #118D42",
"a. c #118E43",
"s. c #148E41",
"d. c #059444",
"f. c #0D9244",
"g. c #0D9047",
"h. c #0F9146",
"j. c #0D9A44",
"k. c #05934C",
"l. c #0A9049",
"z. c #0B944A",
"x. c #0E9448",
"c. c #069A4F",
"v. c #0C9A4C",
"b. c #139043",
"n. c #139343",
"m. c #159143",
"M. c #109146",
"N. c #129246",
"B. c #169546",
"V. c #1A9442",
"C. c #1A9542",
"Z. c #1C9442",
"A. c #159B45",
"S. c #1B9B44",
"D. c #119649",
"F. c #139B4A",
"G. c #199D48",
"H. c #019551",
"J. c #069B51",
"K. c #099E50",
"L. c #229640",
"P. c #229C42",
"I. c #16A147",
"U. c #1BA246",
"Y. c #1EA847",
"T. c #14A24D",
"R. c #1BA34A",
"E. c #1DAA4C",
"W. c #07A154",
"Q. c #0CA252",
"!. c #12A550",
"~. c #16A850",
"^. c #22A345",
"/. c #25AA46",
"(. c #29AA46",
"). c #23AA4A",
/* pixels */
"w g j M m.} M * R C P ~ M m.} ~ p.* g.@.R #.t.M.Z.r s.2 ^ e.Y P T c M e.>.W j r n i.7.0.u P j m.Q ! } u.~ s d M.u.T I z m.V M.{ ",
"2 1.I 1.w 1.I z 2.9.2 ~ P I <.j T e.~ R B V.} >.^ 2 N ~ 2 x x P P w / j 1.N ^ l ~ n.~ I ~ 0.T { ~ P v Q e U M.>.P ~ u.T 3.~ I 9.",
"q.' ,.^ c t.' t.g.r j ;.I r / 2 w v M k T T 9.P _ y.l...i 1 2 r 2 j ( T P w.Q Q n.D w.%.' ,.' { ' 2 M Q 2 R c q.j Q ,.,.Q ^ I t.",
"e k ^ ^ @ P N R 1 2 S k j r + 1 2 j k 2 } ^ . # Z.B T #.@ Z.8 M 2 w V ~ >.j 1 z  .I j N @.w l } s.+ 1 2 v 1 r w l 1 0 N T p.j v ",
"k _ Y e j ^ 1 ^ P 1 =  .2 w c T 2 r u j p o.n E M.T x.l V m.7.j T L W ^ ) z B.9.{ P T t j d j T + ..w 2 W @ T 1 j l [ M 0.U [ $ ",
"~ 1.V.w ^ M 1 W >.Q y w g.@.! 1.2 C 7.2 @.4 P B.x.t.T w n.T D.[ @.^ u.%.2 I @.>.] x c B + T v M r r n.2 ~ E ^ M 2 l W ~ M 2 1 } ",
"j l 2 I N &.c ^ ^ P B g.Z.I M 2 9.#.c t.j P s.r >.V.l *.B l g.r V.r j 2 P g V...N T 2 1 N { m g.Q M. .@.M p.j M.I &.M t.z r u.B ",
"I 7.c j L.O.J l %.N j 1 M 2 g i + _ T M.j 2 P.>.,.B ' Z.j S.;.P B.] 7.j b S.D.V.1 V.F j z T } ' %.S N ! c 9.>.c 2 Z.Q T r ' =.@.",
"1.9.@.j r 7.g 2 O.} 1 4 j r r +.j v 0.( O.%.G.T 1.< .  .c r c #.F.{ x.[ B.7.0.~ 1 . m 2 w 9.~ c % ..2 . g j g Q @.p.I g.@ . @.M.",
"u.e j n.w g.P M j R 7.l.I Q w D m.{ I @.u F.x. .z.p.[ T { V.E E z.k.I 2 G.c.Q j k.z.B W j m { B.^ r z G T &.2 6 s.7.t.Q z E l 9.",
"] >.3.#.M l.Q t.g.{ ' T Q @ g.B V t.; p.B.r >.,.1.M { j  .} x.R M I k.k.M 2 1 c r 2 B S.N { T I %. .j ~ | ^ r l &.t.#.r I j I ( ",
"R p V w @ } t x 5 ^ { + Q  .' j ~ ' , T 8 V.t.l 4 l c { } P w | c E w { T j j 1 j j n.q g.B.P c j %.w ^ Q / p.@.Y @.j P z t r [ ",
"@ 2 ] %.@ ^ p 2 2 7.N j r B @ T 2 M j P W  .B.#.+ S.M 2 j %.k. . .] { V E } + P.L w @.n.F.M 9.{ x.V.T T S.^  .R G R = P w @.i } ",
"< T l V.X.v [ R 1 1 w [ { E R ^ T R j t.~  .S.{ - 1 e 0.4 T | m.F.w F.n.0.} 2 t z F.M 1 < %.Q y.O.B.T g.B 0 2.N R j %.^ r V...k ",
"I 3 w M.R . V.R 1 j w m.~ l M.v x. ._ S.~ ^ n.j V.z ;.T >.1.0.0.3.' 1.} T r 2 6.n.Q B T l B.c @.T z.z.m.j M.Q  .P l V.{ g.^ / 2 ",
"r #.r M.M M E ^ Y Q P ..B.e.t.Q E ^ w  .{ F.F.v -.G.r 2 j N P 1 M O.6.>.x.M E { | k.M 3.T c , *.M M Q l.@.x 3.p.m.Q Q M c @.M w ",
"2 Z.P ~ c t.{ ! j I 1 g l v w 2 j m %.j v.k.%. .c.s.j j 1 l #.p r 2 / M r %.2 w 9.G.g Q ,.#.2 E | j I j ~ @.j T ~ 7.B g c Q P e.",
"G < B j  .j ~ V c T l M r #.P.j B.G @.E l w ( D.2 I t ( j U.V V w w _ S.1 w 2 2 ! 1 R j T n B r ^ P t.W T T r c 2 %.p.x R 1 Z.@.",
"M.R E w B.W R B w j c 1.{ ] k @.R 7.B.&.j T D.l R 1.S.8 v W 2 A.[ w w 1 N w 1 @ 2 . n A.2 1 M j ^ x z.I { j =.~ ^ Q g.P u.W n.) ",
"7.z i.2 g.m.l B.^ ~ w y.' w B.M.T c b { u w. .w { ! v.g.F.M 7 T g.g I + r G.@.p 9.T 1.X.c ( E 2 v V c t.E ] c w.Q 2 I i.l.c M.E ",
"' P  .{ %.{ M 4 V 4 w w 2 #.g.P T T j ^.[ 1 g.G.1.I W  .I l T M U.[ 3.} ~ j M k.;.q.R M p I c.0.c r B c r z + e j } [ O V.9.u.E ",
"y.,.>.~ 1.v q.1.[ j C l j 2 j 2 Q I c.S.1 2 ^ w N w M w P I T c.A.r ,.E g j #.w 2 r O. .3.T I M j S.n.c B 8 o.E w M w j W >.q.g ",
"1 M 1 i R w [ 2  .r $. .w I 2 w $.2 g.r T c m 1 w A.F + j 2 r d.2 l Q c B g.j S.w B V M r c l j F  .F.I z.M W { l l j r { B I - ",
") O.n.V [ k S.m U  .c 9.P l.T %.R 1 O.2 R j ^ N { [ c w t @ 2 O.1 p B 2 c X 1 B B c j 1 8 | M . T l 1.x.k.@.g.{ P 1.g _ V.P g.9 ",
"s.m.i.e i.j B.D - B.j T P v.R | W U [ B P S.q.;.r %.i ~ A.j B B + U.S.B T O w $.B n.>.z ^. .T V E V.w.E Q $.G R M S.^ g. .3.3.u ",
"7.P ^ v ..M x.M o v V.V.w Q d.+ g.3.B.T T U.V ] M |  .{ { W Q.M | E A.T v.B j  .v.j.z.A. .x.I 0.^ { B.E r o %.N V.,.3.l E I 9.t.",
"I 3.~ %.@.! 9.R { 9...w 2 w S.G.x.S.G.T v.r 2 U.T { T.D T.k.T 3.).j g.%.W.V Q.1 l { H.3.j { Q J.v.v.F.^ G.8 ] Z w 2 V.w { G %.T ",
"9.{ E j c = c V.n.E ^ 2 M V.G.L A.S.T.t.K.V x.S.z.6.k.~ k.v.0 M E.V.;.Y.Q k.2 1 ..B I j 6.c.Q ;.c.v.( 9.N V.T M z j B.&.e E M @ ",
"1.P ..k R I J T V.P c.} [ 1 v.P 1 V A.Q 0./.c T.U.j $.c r j 2 2 !.~ 8 R (.c @ j | 1 M } { m 2 c @ j G.2 z T F.M 7.^ x.O.) M.] M ",
"M Q Z.1 [ 3.M W P Q k.M M.n.k.P ^ %.T j A.^.l z.p.w G.j.c r E.g.E.Q ~ U.% i A.r 6.0.J.T M E @ r n.3.Q { I z.9.w.I I T I I t T >.",
"t r } 2 W S.l.G.Q r c M S.2 ;.j ,.U.c j o M K M E R.T #.@ M n J.Y.c T M r r R.%.g.E M P ~ { r e + n j N H.T j x M *.P r >.Q P 3.",
"I 7.1 ' P.s.B.^ V.N w ; j j 1 w p ..E F.2 ; /.E 1 T c.^.r ).r e E.~ v.p ` ^.v.U.r U.N @ z ~ | j j S m w w 1 w + 6 S.I B 2 ,.-.p.",
"1.=.O.j @ p.g 2 +. .i M r 0 1 S T V z.A.n.S.R.E z.2 B g.B % w #.~.3./.A.E.v.d.{ r B V J M g.} i + +.w M j 8 c r @.B.T x.r M @.M.",
"[ M z B.2  .P g 1 t D.P.I { j ^.A.^ 3.1 r T.T.;.R.D.g.T 3.a | | Q.d.E z j.W.| c J.K.i w 1 M w 1 | v j W T 1 @ i m.g.k.~ z E g 9.",
"+ >.1.| l } Q k.D.D.V.T ! w g.V.l k.1 M K.B 3.g.3.( 3.1 Y.7.j.B x w J.W.A.6 g.i . r L v.R S.B T ^ g.1 { Y | j R B k.#.w T l D ^ ",
"- w @.V.V 2.F &.o r g.j >.T q.S.E | o @.A.3.k.r M $.w R.w.@.I.| E r /.j.v.U.j x.+ w #.B ~ w I #.%.%.%.1.E v M.%.1.~ r I %.R w 9 ",
"I W R B...j V.m + ^ 1 w j P.m G.E F.j A.U.c T F 1 | P a j I.T.T Q.c A.j.~ T.r U U.j O.E F.@ w V. .w ~ Y 2.~ %.B.I 9.w 1 ] p.M ^ ",
"% [ l g.I = M V.D.>.w T w S. .v.k.j.W F.x.~ v.M S.W B c [ T v.I.W.v T.d.k.M k.K.#.M ] v.{ X.T #.p.s.T r l J  .A.~ l.p.I + T M t.",
"t.] } Q P >.9.7.P 3.~ [ T j 2 ~ x 3.v.1 P 1.T.I z.[ E  .g.g d.! k.c.9 E c 2 W : @.6.v.v.1 U.x.F 2 T V.( j r E >.q.{ &.^ %.3.3 ' ",
"w } k r i P I n ' j c M. .2 P Q n ~ A.~ ~ i ~ D.M | k.Q { E p M c A.c g.r 1 | r w n I 2 n.! B 7.T T ;.P.g.2 1.3.M %.+ M X g 9 1 ",
"w w 2 r } Z.c m %.- w N w r r g.n | E  .M { 8 E U.{ M @.;.E r &.1 T.U.+.g.8 3.g.r W q j Z P ! j z.0.x.B.T | 6 o &.j j N w T 2 %.",
"w P j I r V V 2 &.R 1 j j +.| g.V.I { E P J.v.S.i g.B E 2 M B ~ V v.M.1 M.G.g.v w n.8 j l j x O.H.H.M 7.^ x.m.X v B w ^  .9.M _ ",
"Q ~ =.T 1 n.g 2 ..B R ^ r S.W | B.w F.g.c Z.z.G.^.2 D.1 v.J.{ ^ M B ! 3.~ j l 2 w 6.} v.j T M S.S.2 B.B.>.T r M.l.~ I M V.N M.} ",
"k T j 1 @ 1.P r W x.w 1.S.9.v r ^ t.E j r S.! g.} @ U 7.j T P E T r [ j l.c I w E m.t.I A.3.T . 1 1 w  .c w D.3.P 3.1.M  .' c 5.",
"j q w 7.Q k.' k.g.p t 3.Y 2 r r [ j n.c = c 9.j T A.l.^.+ S.2 c ^.- [ K P k.Q P.j %.q.: V.g.I ^ + r V.~ j ! %.I l Q Q Q E 9.,.t.",
"j 2 t I #.Q r ~ I + , j c r S.r } P.G.T 6.n F S.W c M D.^ $ M m U.+.j S.Q [ ] r j | 1 S.l g.P c.@.T j E E w  .D / n [ r ^ 2 ..Y ",
"^ j 2  .j w j #. .c z w K B B.#.M $.F.~ v.n.^.2 R (  .E x.E ~ 0 F.^ J @.G N k w w T j 1 j P Y c.P ! 2 9.^ 1 T M w r V.V ! l r 1 ",
"M.R %.j r c 2  .M.P 0.2 M V.F.@.w B.n.y.3.l G.K 2 A.^ B 1.N F.l v.I I T @ T 2 p g.@ I M E c 2 I ' r j g l V.E M O.T B.V.@.m.M r ",
"q.w.@.o.{ T r r 7.Q k.U B.N z.P r 1.d.2 g &.D.E j U @.3.;.P 1 F.| I k.v.I >.@ j ] } >.^ 0.V 1 j 0 g.w j w M } Q M.9.1.~ @.A m.I ",
", O ] $ c u.7.] 3.P ~ k.r S.~ x t.B.M j %.N v.T T w N j M ' 1.>.#.j j S.M v.V.v.9.k.Q P j 3.} ] r x y.k P 7.k.Q M V.u.} @.u.^ 3.",
", w ~ M I @.g ^ + r w g V.X c r 2 ..z r o k.p.I Q B.i ( ; c i 2 S.w M M c k.G.V.N  .j N z T w 2 X ^ j &.j , c o g &.1 r ^ P U  .",
"T ^ 1 4 %.#.f j #.r w + j j < w 2 ..T g.8 + P.l 1 M 2 S.w S.w p S.T x.8 H P.F.p.w G.T , j E M.i j C [ 2 w 9 w = & V.I 7.2 > &.n.",
"~ g.v 2 e p.t 2 Z.m.r j r % < k @.N 9.1.[ V.B.T 9.2 M  .M @ w ..F.3.v.m.G.9.x.T c M 4 z c g.T W + m k M B 2 l r N i.^ 7.[ O.T g.",
"~ Y @ M.2 g.P 1 1 / N 9.j T r / V.^ c 1 w D.D.E c.p. .B { p E T c.k.) c D.>.3.j ,.T 2 j s.g V 1 B.N g R >.r @ V { l.>.N w M.< I ",
"2 U t.M.{ 7.Q >.{ O.>.P ^ j T j c k.1 l c.M >.q.=.x { @ Q ^ g.B j  .~ >.r - M r . r @.1.^ | M u.M M X ^ R g.I N c P %.3.t.r k P ",
"%.c c + j [ l ,.^ r P %.P q.;.( >.I k ;.@ 9.t.E c K 2 E %.P T x.T r c 2 [ r T c + 2 +.8 x 4 w.C r &.3.~ M j j  .x c w j @.T w 0 ",
"j r > @.w } v - + w W 2 2 w @ Z.l a 2 w V 8 1 w < [ M V.r #.V.~ ~ w 1 %.p.w 9.1 j r X.T } + 8 =.r 2 j j = w #.V.P { w @ { } M ^ ",
"o r V.V.#.s W ( j j _ 2 e w O.B.I g.r &.S.r l w 1 E r j r m.B.I z.N *.z 7.V.2 p.+ @.W { 7.m 2 ..w t g r j z @.M.Q l. .c o T M t.",
"[ V r M.#.2 n.] r N 1 1 * #.s.M.3.2.V ^ 7.P 9.%.X.[ g w B M 0.' t.w n. .T g.@ I s._ 7.! M 1 M.@.2 ^ Q 2 z B M 3.q.Q c 7.} 7.w ' ",
"w V.R u.I g r r 7.1.o P   V.M t.! ^ I j Q Q 3.R | 2 N ^ [ M ! &.Q k.c 3.>.x ,.l.@.P k.w r 0.r 1 z P 3.7.~ 2 R &.r w T c X 5 w X ",
"~ W 9.E j w.<.s.~ Q P O.c 1 ^ Q r M @ 1.e.h { y.j  .w.I [ R  .@ r j j T r j _ j n T I @ q.&.@ P [ P Q ..R @  .w @ r +.j N r j & ",
"2 { < j e + w k q.r ' p.@.% w j 2 B @.B @ j w K I M g j E Q 1 0 w n.r } w < ^ 2 2 2 < j %.@ 0 w i.@.2 &.w j 2 w j V.@ N 2 r w 2 ",
"& } m.+ r L.w V [ j j N j 2 2  .1 ^ c { M ~ j R V.E 1 ( 4 c j #.j M.V.(  .2 ] p.1 N @ + M F w j m 2 2 m.T } N j &.c 2 B 1 T 2 &.",
"- N = z @ N C 1 &.^ 2 j @ #.} 7.@.j { P M t.2.V.j } w c . x I T ! 7.[ & U m.R w 2 ] $ 4 2 w ^ D g 1 t p.^ 7.} 2 g v 2 ~ @.^ c D "
};
