/* XPM */
static char *d8e80b2db99f42acdc1115d8fae4468alOunaHDPuHTJqVS6[] = {
/* columns rows colors chars-per-pixel */
"64 64 235 2 ",
"   c #09370E",
".  c #023512",
"X  c #033C15",
"o  c #023F18",
"O  c #0B3C10",
"+  c #153C0A",
"@  c #163F26",
"#  c #02441A",
"$  c #034B1D",
"%  c #094616",
"&  c #114714",
"*  c #04511F",
"=  c #0B511C",
"-  c #10511B",
";  c #024E20",
":  c #094928",
">  c #045422",
",  c #045B26",
"<  c #0A5C24",
"1  c #035E29",
"2  c #0B5826",
"3  c #0B5935",
"4  c #175A36",
"5  c #114D2E",
"6  c #04632B",
"7  c #0A642A",
"8  c #056A2E",
"9  c #0B6B2D",
"0  c #056326",
"q  c #12692A",
"w  c #09722E",
"e  c #12752E",
"r  c #046C32",
"t  c #096E31",
"y  c #0A6637",
"u  c #13643C",
"i  c #047335",
"p  c #0A7433",
"a  c #067936",
"s  c #0B7A35",
"d  c #037639",
"f  c #057B3C",
"g  c #0A7D3A",
"h  c #0C743A",
"j  c #137C34",
"k  c #117736",
"l  c #223C75",
"z  c #173D53",
"x  c #1A5946",
"c  c #165D4D",
"v  c #274F50",
"b  c #0C6844",
"n  c #186946",
"m  c #0B7A45",
"M  c #167948",
"N  c #18675A",
"B  c #197B55",
"V  c #26764A",
"C  c #257757",
"Z  c #246A4E",
"A  c #1F4277",
"S  c #294B7E",
"D  c #2F5B70",
"F  c #336869",
"G  c #367875",
"H  c #2D6B6E",
"J  c #43777E",
"K  c #05823D",
"L  c #0C823C",
"P  c #0E893E",
"I  c #148337",
"U  c #12843A",
"Y  c #148B3D",
"T  c #068442",
"R  c #098541",
"E  c #0D8C43",
"W  c #078846",
"Q  c #158645",
"!  c #139242",
"~  c #1A8655",
"^  c #288456",
"/  c #2F9059",
"(  c #33896D",
")  c #4E8C79",
"_  c #333C98",
"`  c #2A3A8A",
"'  c #2C4685",
"]  c #39469A",
"[  c #355289",
"{  c #3B6288",
"}  c #3E46A0",
"|  c #445A95",
" . c #4A778B",
".. c #496698",
"X. c #4B7893",
"o. c #567B9D",
"O. c #466E8B",
"+. c #424CA2",
"@. c #4652A4",
"#. c #4D5AA9",
"$. c #4956A6",
"%. c #515EAA",
"&. c #5464AD",
"*. c #5669AB",
"=. c #576CAA",
"-. c #597CA3",
";. c #5B76AA",
":. c #5B6CB1",
">. c #5967B1",
",. c #5F71B3",
"<. c #4E62A6",
"1. c #617DAB",
"2. c #6274B6",
"3. c #657BB4",
"4. c #6A7DBC",
"5. c #6678B7",
"6. c #448387",
"7. c #56859A",
"8. c #56898B",
"9. c #628893",
"0. c #5FA098",
"q. c #5D84A4",
"w. c #5C92A1",
"e. c #6586A9",
"r. c #6582B1",
"t. c #6B84B5",
"y. c #6D89B4",
"u. c #6D82BD",
"i. c #6E89BA",
"p. c #718BB7",
"a. c #7186BB",
"s. c #748CBA",
"d. c #7A8EBF",
"f. c #7B93BD",
"g. c #7794B9",
"h. c #7894AF",
"j. c #7BA6AC",
"k. c #7BA1BC",
"l. c #6E84C0",
"z. c #7184C1",
"x. c #758AC3",
"c. c #798EC6",
"v. c #7D8ECA",
"b. c #7B93C5",
"n. c #7E94C9",
"m. c #7E9BCA",
"M. c #7B94C3",
"N. c #8198BE",
"B. c #86AAB7",
"V. c #86A3B1",
"C. c #839AC2",
"Z. c #8B9DC5",
"A. c #8195CC",
"S. c #849BCD",
"D. c #899ECD",
"F. c #8093C2",
"G. c #879DD0",
"H. c #899ED1",
"J. c #909FCB",
"K. c #8BA2CD",
"L. c #89A6C9",
"P. c #93A5CC",
"I. c #97ABCC",
"U. c #8EB4C8",
"Y. c #98B4CA",
"T. c #8CA4D3",
"R. c #8EA9D3",
"E. c #92A6D5",
"W. c #92ABD5",
"Q. c #9DADD3",
"!. c #95ADD9",
"~. c #9AADD9",
"^. c #9CA5D1",
"/. c #95B1D6",
"(. c #9AB3D5",
"). c #96B1D9",
"_. c #9BB4DC",
"`. c #9DB9DD",
"'. c #9DBDD3",
"]. c #8FB0D7",
"[. c #A5AED5",
"{. c #A4B3D4",
"}. c #ABB5D6",
"|. c #A2B5DD",
" X c #ADB6D9",
".X c #A3BCDD",
"XX c #ACBBDB",
"oX c #A6BAD5",
"OX c #B4BDDD",
"+X c #B9BEDE",
"@X c #A4BACF",
"#X c #9EBAE0",
"$X c #A3BCE1",
"%X c #AABEE2",
"&X c #B7BFE0",
"*X c #A5C2DD",
"=X c #AAC4DE",
"-X c #ABCADF",
";X c #B3C2DD",
":X c #BBC1DF",
">X c #B5C9DE",
",X c #A6C1E3",
"<X c #ACC3E5",
"1X c #ADCAE3",
"2X c #AEC5E9",
"3X c #AEC9E9",
"4X c #B2C5E6",
"5X c #BBC3E2",
"6X c #B4CBE5",
"7X c #BCC9E7",
"8X c #B1C6E8",
"9X c #B4CAE9",
"0X c #BACBE9",
"qX c #B9C7E8",
"wX c #BAD2E5",
"eX c #BCD2EC",
"rX c #B5D3E6",
"tX c #C3C6E4",
"yX c #C3C9E6",
"uX c #C9C9E6",
"iX c #C3CCE8",
"pX c #C8CDE8",
"aX c #C3D5EC",
"sX c #CBDBED",
"dX c #C7D7EA",
"fX c #D4DCEF",
"gX c #D0D6EC",
"hX c #CBDDF1",
"jX c #C2D7F0",
"kX c #D3DEF1",
"lX c #DADEF1",
"zX c #CFE0F3",
"xX c #D5E3F4",
"cX c #DAE4F4",
"vX c #CDE1EB",
/* pixels */
"# > , 8 L L 6 % 9 9 6 i r L L f g < L P s Y E ~ Q n J -.r.r.r.r.r.r.-.7.6.C u 3 u Q E f < 6 6 L a i g T i < q E W d r 7 U p L K ",
"; i i i 6 f r 7 L p > i r r a 6 r a a w h Q ~ 6.o.o.q.y.s.Z.^.Z.s.p.y.r.q.-.o.o.7.( ~ m a K d K f 6 8 i > 9 L T r a T a K a d T ",
"d f T d 1 f f T g > > i 8 > 1 # # 6 y u G q.e.y.s.s.s.}.:X5XtX5X+X+XOXZ.s.p.r.r.1.-.-.6.B m f K a # , 6 $ 7 r d 1 r f f f a r T ",
"> 1 a t # 6 8 t $ X < 7 > # . o : x  .1.g. X&X+X+XOX}.tXuXuXyXuXuXuXyX5X+X XN.y.y.p.s.y.e. .n m p o X # > # $ ; > # > 8 a L 6 < ",
"< p i > > 8 $ t 6 o & 9 * $ 3 Z  .-.s.}.+XtXuXuXuXuXtXtXyXyXyXyXyXyXyXyXuXtX5X+X+X+X+XOX{.Z.e. .4 < $ # 7 # 1 # $ , w r a p 7 & ",
"i g s > r 8 # p f r = , m C X.-.r.M.OXyXyXyXyXyXyXyXyXyXyXyXyXyXyXyXyXyXyXyXyXuXyXyXyXyXtX5X5X}.e.G M > r i i 6 $ 6 s a 6 # ; 9 ",
"1 6 > 6 p j 8 p g r 6 M 6.o.1.y.Z.OXyXyXyXyXyXyXyXyXyXyXyXyXyXyXyXyXyXyXyXyXyXyXyXyXyXyXyXyXyXyX&XQ.7.M r L r a 8 j i f , > a a ",
"r g 6 , j U 9 6 L 8 n 9.1.;.y.[.tXpXpXyXyXyXyXyXyXyXyXyXyXyXyXyXyXuXuXyXyXyXyXyXyXtXyXyXyXyXyXyXyXyX Xe.N m d 6 , U a i > r Y Y ",
"R L s , < g , $ p ^ V.Q.s.s.{.gXlXlXfXyXyXyXyXyXyXyX5X:XOXOXOXOXOXOXOXOX5XyXyXyXyXyXyXyXyXyXyXyXyXyXyX Xe.H 3 8 L Y a a o o j ! ",
"R 1 8 s , g r 6 V B.oXoX{.>XfXcXcXlXpXyXyXyXyX5XOXOX^.C.f.g.p.p.f.f.f.C.P.XX;X5XyXyXyXyXyXyXyXyXyXyXyXyXXXy.F 4 U E R i , 6 8 L ",
"K d g j 6 L d ~ j.oXoXoX;XfXcXcXfXpXyXyXyX;XXXP.C.N.Z.P.P.C.s.s.L.{.}.Q.N.f.s.C.XX5X5XyXyXyXyXyXyXyXyXyXyX}.r.F Q E j 1 6 , 6 s ",
"9 < 9 > # p 7 8.@XXXXX;XfXcXcXkXpXyXyX5XXXC.C. X+X+X:XtXtX5X+X+XtXtXtXtX:X Xf.r.y.f.{.;X7XyXyXyXyXyXyXyXyX5XP.-.C g < 1 , > > s ",
". $ p s $ 8 V B.;XgXfXfXcXcXfXpXyX7XXXC.C. X+XtXuXuXuXuXuXuXuXuXuXuXyXtXtXuXOXZ.p.r.y.f.XX5XyXyX7XyXyXyX7XyXXX3.X.n - 1 > p 7 p ",
"X , 6 Y e V B.pXfXcXcXcXcXkXpXyX5X{.C.P.OXuXuXuXyXyXyXyXyXyXyXyXyXtXOX[.[.OXtX5X Xf.y.r.p.P.OX7X7X7X7X7X7XiX&Xy.=.O.M p 6 U j < ",
"1 $ > L k 9.>XkXcXcXcXcXcXgXiXOXK.f.{.5XuXyXyXyXyXyXyXyXyXyXyXyX+X^.Q.Q.^.^.^.&XtX:XOXZ.y.r.f.XX7X7X7X7X7X7X5XZ.3.;.G L g L 9 # ",
"> e 1 g C Y.kXcXcXcXcXcXkXiXOXC.f. XtXyXyXyXyXyXyXyXyXyXyXyXyX5X^.P.7XdXdX7XP.^.5XyXyX5XXXC.y.s.XX7X7X7X7X7X7X5X XF.o.b 8 g 8 ; ",
"$ k 8 m j.sXcXcXcXcXcXcXkX5XZ.y.{.yXyXyXyXyXyXyXyXyXyXyXyXyX5X[.P.>XwXwXvXvX7XQ.5XyXyXyXyX5X Xs.s.XX7X7X7X7X7X7X7X5X(.J 3 r r f ",
"9 > 6 C @XcXcXcXcXcXcXcXdX{.y.f.5XyXtXyXyXyXyXyXyXyXyXyXyXyX5XP.f.-XrXrXrXdXdXQ.5XiXyXyXyXyXyXXXs.C.qX7X7X7X7X7X0X0X5XN.n > I Y ",
"E 8 h V.sXcXcXcXcXcXcXcXqXa.3. XyXyXyXyXyXyXyXyXyXyXyXyXyXyX5XP.R.-XrX1X6XwXwXQ.5XyXyXyXyXyXyXyX{.s.(.7X0X0X0X0X0X7X7XXX6.h Y I ",
"L 9 ^ Y.xXcXcXcXcXcXcXxX{.3.f.5XyX7XyXyXyXyXyXyX7X7XyXyXyX5X{.K.*X1X1X1X1XrXrXQ.5XyXyXyXyXyX7XiXOX3.y.%X7X0X0X0X0X0X0X0XB.M L g ",
"f M j.XXkXcXcXcXcXcXcXkXI.t.{.7X7X7X7X7X7X7X7X7X7X7X7X7X7X5XE.C.*X1X1X1X1X6X6XQ.5XiX7X7X7X7X7XiX4Xy.;.K.qX0X0X0X0X0X7X7XoX( T a ",
"f ~ L.OXfXcXcXcXcXcXcXfXQ.y.XX7X7X7X7X7X7X7X7X7X7X7X7X7X7X5XP.f..X1X,X,X,X1X6XQ.5X7X7X7X7X7X7X7X5X(.a.s.%X0X0X0X0X0X9X0X%Xq.m > ",
"2 8.I.XXfXcXcXcXcXcXxX5X(.Z.4X7X7X7X7X7X7X7X7X7X7X7X7X7X7XqXK.i.`.1X=X=X=X6X6XQ.%X7X7X7X7X7X7X7X7X7XXXP.W.4X0X0X0X0X0X7X0XI.B O ",
"V B.5XsXxXcXcXcXcXcXsXoXXXdX0X7X0X0X0X0X0X0X7X7X7X7X7X7X7XqXK.t.(.,X*X*X=XrX6X(.4X7X7X0X0X0X0X0X0X0X0XXXs.%X0X9X0X0X0X9X0XXX .- ",
"/ U.kXcXxXxXxXcXcXkX;XXXsXcXdX0X0X0X0X0X0X7X0X7X0X0X0X0X0X9XK.t.(.*X*X*X*X1X6X(.qX0X0X0X0X0X0X0X0X0X0XXXt.|.0X9X9X9X9X9X0X%X-.4 ",
") Y.xXcXxXxXxXxXxXdXXXdXxXxXkX0X9X0X0X9X0X7X0X7X9XqX4X4XqX<XR.c.(..X.X.X`.=X1X/.<X7X9X0X0X0X0X0X0X9X0XXX3.d.<X9X9X9X9X9X9X<Xy.B ",
"j.wXxXxXxXxXxXxXkX;XXXfXxXxXxXkX0X9X9X9X4X4X<XXX.XW.R.K.R.W.R.S.(.`.`.`.`.*X1XW.R.XX9X9X9X9X9X9X9X9X0X%X;.2.%X9X9X9X9X9X9X9XI.G ",
"Y.sXxXxXxXxXxXxXsXXXaXxXxXxXxXxXhX0X9X1X(.).(./.(.L.C.f.s.M.W.`.`.`.`.`.`.`.1X.Xn.R.<X9X9X9X9X9X9X9X0X%X3.:.$X9X9X9X9X9X9X9X.X..",
"oXsXxXxXxXxXxXxXsXXXdXaXsXkXxXxXxXhX4XW.W.*X6XwXwX6XwXwX>XI.(..X(.(.(.(.(.(.<X8X.XR.).4X9X9X9X9X9X9X9X1Xb.,..X9X9X9X9X9X9X9X.X=.",
"{.sXxXxXxXxXxXxXaX(.4X9X9XeXhXxXxXzX.XS.*X=X*X=X*X=XwXdXwX6X=X/./.(.(.(./.(.*X1X1X.X/.1X9X9X9X9X9X9X9X9X|.3.D.4X9X9X9X9X9X9X$X=.",
"Q.8X9XeXxXxXxXxX7Xa.W.9X9X9X9XeXhXzX.Xx.W.(./././..X6X6X6XrX6X/./././././.).,X<X1X,X(.1X9X9X9X9X9X9X9X9X1XD.5.$X9X9X9X9X9X9X$X=.",
"d.$X9X9XhXxXxXxX0X:.u.<X9X9X9X9XeXhX6XM.A.R.R.R.W.,X1X1X<X.X/.W.W.W.W.W.W./.,X<X<X,X(.<X9X9X9X9X9X9X9X9X9X`.5..X9X9X9X9X9X9X$X*.",
"=.W.9X9XeXzXxXxXeX*.*.$X9X3X3X3X3X9XeX(.s.A.n.n.D._.#X#X$XK.a.K.W.W.W.W.R.W.,X<X<X$X].,X3X3X3X3X3X3X3X3X9X`.5..X9X9X9X9X9X9X$X*.",
"{ t.,X9X9XhXxXxXeX:.&.).3X1X1X1X3X3X,X(..XW.2.u.n.D.W.W.4X6XXXK.W.R.R.R.R.W.$X,X,X$XR.`.<X3X3X3X3X3X3X3X3X).2..X9X3X3X9X3X9X$X*.",
"v <.$X9X9XeXzXxXaXA.&.x.,X2X<X<X1X,X].R._.(.R.R.W..X<X<X6XeX6X.X`.W.R.R.R.W.$X,X,X#XR.`.<X<X<X<X<X<X<X<X<X).u.$X9X3X3X3X1X9X`.O.",
"@ ..$X3X2X9XhXzXhX_.:.W.<X<X<X<X<X,XR.b.D.R.W.W.W..X1X1X1X<X_.A.S.).W.R.W.#X$X#X$X`.R.`.<X<X,X,X<X<X<X1X$XT.W.<X2X1X9X3X1X9X(.F ",
"3 ..!.<X<X2XeXhXjX`.2.).<X$X,X,X,X,X`.m.c.A.A.A.S.T.`.`.$X.XA.4.&.c.W._._._._.R._.`.R.`.,X,X,X,X,X$X<XeX`.5.`.3X<X9XeX3X<X2XU.B ",
"5 [ 2.`.2X<X1XaX9X.Xc.).$X$X$X$X$X$X$XR.m.b.u.c.n.S.W.R._.6X=XQ.x.&.n.D.b.n.K.D.R.`.R.`.$X$X$X$X$X$X9XaX`.a.`.<X<XeXjX2X<X,Xg.~ ",
"m D <.).<X,X<X<X<X,X_.D.`.$X$X$X$X$X`.K.s.K.R.W.W.W..X<X1X6XrX=XK.c.b.z.u.n.S.S.D.T.R.`.$X$X$X$X$X,XeX0X)._.,X<X<XjXjX<X<X`...b ",
"> b .._.<X$X,X$X$X<X).,.W.$X`.`.`.`.`.K.3.m.R.T.R.R.).,X<X,X(.K.S.S.A.n.n.A.S.S.c.&.m.`.`.`.`.`.$X9XaX<Xa._.<X,X9XaXeX<X<X/.D ; ",
"# : | !.$X$X$X$X$X,X!.*.D.`._.`.`.`.`.).m.u.b.A.b.c.S.`.,XW.x.b.A.n.A.A.A.n.m.n.l.*.m._._._._.$X9XeX0X|.W.$X$X<XeXjXeX,X,XU.4 w ",
"$ 3 [ u.`.$X$X$X$X$X_.5.5.W._.)._._._._.W.m.C.K.u.>.u._.6X6X.XK.n.n.n.n.n.n.m.c.,.x.T.)._.`..X9X0X0X~.u.).$X$X1XeXjXeX,X$Xk.M s ",
"r a B ..!.$X$X$X$X$X$XT.&.A._.!.!.!.!.~.!.K.m.R.K.S.R.*X6X9X<XS.n.n.n.n.n.b.n.4.$.n.).`.%X8X9X0X9X~.c.:.!.$X$X0XeXeXeX<X/.O.m L ",
", 8 3 | !.$X#X$X$X#X$X!.%.#.D.!.!.!.!.!.W.m.l.A.S.D.K.!.(.W.n.,.4.l.l.z.c.n.b.2.:.W.9X9X9X0X0X0X4XH.c.T.`.$X8XeXeXeXeX$XL.B r R ",
"> $ : { T.#X`.#X`.`.`.`.D.#.,.T.W.W.W.W.W.R.m.b.4.x.b.n.u.#.@.+.@.$.#.&.x.W.(.W./.<X9X9X9X9X9X9X9X_.A._.$X<XeXeXeXeXeX`.q.m f T ",
"> # $ n r.!.`.`.`.`.`.`.`.D.>.z.T.E.T.E.E.E.T.T.D.S.m.m.b.x.b.R.R.R.R.W.(..X,X8X9X8XqX9X9X9X9X9X%XT.`.$X1X0XeXeXeXeX0XL.C > p r ",
"p > * y { E.`._._._._._._.`.S.>.c.T.R.R.T.T.T.T.T.T.T.T.T.R.W.4X9X9X9X8X8X4XqXqXqX4X4X4X4X4X9X$XS.~.9X0X0XeXeXeXeXeX9Xe.m 0 > # ",
"E a s 6 c M._.)._._._._.)._._.n.&.x.T.T.T.T.T.T.T.T.T.T.T.H.W.<XqXqXqX4X4X4X4X4X4X4X4X4X4X4X$XA.A.4XeX0X0X0X0X0X0X0X'./ U I 8 $ ",
"f f U e b ..S.).).!.).).).).).!.x.&.z.S.H.T.H.G.G.H.H.G.G.T.|.4X4X4X4X4X4X4X4X4X<X<X1X<X<X|.A.A.%X0X0X0X0X0X0X0X0X4Xw.Q U k L i ",
"& % w - 6 N ..A.W.!.!.!.!.!.!.!.!.n.&.4.c.n.A.D.D.S.D.H.E.$X<X4X4X<X<X<X<X<X<X<X<X<X<X$XE.v.A.%X0X0X9X0X0X0X9X9X9XU.^ a Y R g T ",
"& $ 8 , i m S @.5.D.!.!.!.!.!.!.!.W.H.S.2.>.2.x.S.D.T.`.%X<X<X<X<X<X<X<X%X%X%X<X%X|.~.v.v.T.%X0X9X9X9X9X9X9X9X0XY./ > , t r p P ",
"i p $ $ s I 4 S ] %.S.W.W.W.W.!.W.W.!.W.T.A.2.>.l.c._.4X4X4X4X4X4X<X%X<X<X<X%X|.E.v.v.n.|.4X9X9X9X9X9X9X9X9X9XoX) U i p 2 - I ! ",
"K L > # 2 j 2 5 ' ] >.T.W.W.W.W.W.W.W.W.W.W.T.b.#.%.H.~.~.~.~.~.~.E.A.H.~.~.E.A.v.v._.<X9X9X9X9X9X9X9X9X9X9X$Xe.n L L L p e p R ",
"i r > p , g 8 # 5 ' +.x.T.E.T.T.W.W.W.W.T.T.W.T.A.S.S.>.$.#.#.+.+.@.@.%.%.>.A.|.%X<X4X9X8X8X9X9X9X9X8X8X9X$Xs.C a R R t 6 p ; r ",
"> 8 f g a L d d a n ' @.x.T.T.T.T.T.T.T.T.T.T.T.W.W.T.A.n.c.2.%.>.z.n.A.n.D.|.4X9X9X8X8X8X8X9X9X8X8X8X4X$XA.X.u 6 r L f f , $ 1 ",
"s 6 , # , s 8 i t , b ' ] :.n.T.T.T.T.T.T.T.T.R.T.T.T.T.T.T.H.S.D.T.W.W.!.%X4X4X4X4X4X4X4X4X4X4X4X4X4X$XA.-.n s 6 1 > , L r > * ",
"> $ - q < p 7 & X $ 9 5 z ' @.x.S.T.T.T.T.T.T.T.T.T.T.T.T.R.E.W.W.W._.%X<X1X4X4X1X1X4X4X4X4X1X1X4X8X|.s.o.x j Y i i > X 8 a 6 p ",
". * j ! j 7 p 9 $ > 9 # # 5 ' ] @.x.S.T.T.T.T.T.T.T.T.T.W.|.%X%X%X%X<X4X4X1X<X<X<X<X<X<X<X<X4X8X.XL.e.x 5 < I E f T s , $ r r T ",
"9 9 6 E I = s p , , # . % j B S ' ] %.x.S.H.H.G.G.G.T.|.%X<X4X4X4X1X<X<X<X<X<X<X<X<X<X<X<X4X=XY.9.C b > , 6 r R m i r s t p > r ",
"1 I s R r , , 6 g p o ; X e s m N ' _ } &.x.S.H.D.S.D.T.!..X%X%X%X<X<X<X<X<X<X<X<X<X8X<X.XY.9.x 3 r K L r $ p j > ; r 6 # % # . ",
"r s g i 1 r i s f i r s , $ r r > 3 l ` _ +.4.b.S.G.G.S.D.H.T.T.W._.$X$X%X%X<X2X8X%X(.L.0.^ : > p t i U 9 # 9 > . > 9 , * $ $   ",
"$ i > $ $ # ; 7 d 1 i L p X $ > # 6 h c l ` _ +.z.c.c.n.A.A.S.S.S.H.H.G.A.A.K.I.I.h.v 4 j $ X > g p > j , > $ # , p $ > # $ # # ",
"O p t X $ e * 0 s , > 6 > # $ p > r i i y b A ` [ ] ] #.2.4.z.z.u.i.y.;...' H V 4 4 . . , , $ > < # $ I i s 6 > s 6 # , $ 1 > j ",
"+ < & % X 7 < $ I p $ $ o e L P s 6 i r 8 T m M c A ` _ _ _ _ ] ' H M 5 u M t $ # 0 O . X ; t 9 ; . = L L E s $ > > # i L p 6 q "
};
