/* XPM */
static char *_c48327e9b554ab8fb2b2837555428c3CzWkTXW7noUGymCO[] = {
/* columns rows colors chars-per-pixel */
"64 64 207 2 ",
"   c #012D0E",
".  c #0B370D",
"X  c #123B0C",
"o  c #012F10",
"O  c #023512",
"+  c #023B15",
"@  c #043D1A",
"#  c #09321F",
"$  c #1C3C16",
"%  c #2B201E",
"&  c #3C291E",
"*  c #33231E",
"=  c #213B1E",
"-  c #0C2D23",
";  c #1B2C26",
":  c #162E28",
">  c #0C3425",
",  c #0C3A26",
"<  c #0E3629",
"1  c #0D3C2A",
"2  c #113F26",
"3  c #14372A",
"4  c #19352A",
"5  c #113D2B",
"6  c #143628",
"7  c #163C36",
"8  c #163F39",
"9  c #382521",
"0  c #3B2A22",
"q  c #372421",
"w  c #2D3620",
"e  c #343423",
"r  c #3B3223",
"t  c #373925",
"y  c #4A2B27",
"u  c #422B28",
"i  c #462D24",
"p  c #562F2E",
"a  c #443125",
"s  c #493627",
"d  c #5D332F",
"f  c #5C3532",
"g  c #573830",
"h  c #623632",
"j  c #633934",
"k  c #6B3E36",
"l  c #6B3E38",
"z  c #034217",
"x  c #0C4314",
"c  c #0D4A17",
"v  c #02441A",
"b  c #0A441C",
"n  c #034B1D",
"m  c #0B4D1A",
"M  c #124818",
"N  c #05511F",
"B  c #0B521E",
"V  c #11511A",
"C  c #034622",
"Z  c #034E21",
"A  c #0C4B23",
"S  c #0D432C",
"D  c #0B4A2B",
"F  c #124427",
"G  c #12442C",
"H  c #134B2D",
"J  c #164B29",
"K  c #035423",
"L  c #095422",
"P  c #045B25",
"I  c #0A5C25",
"U  c #04552A",
"Y  c #035D2A",
"T  c #0A5C2A",
"R  c #095028",
"E  c #115D21",
"W  c #16522B",
"Q  c #1B542A",
"!  c #175E2A",
"~  c #0F4831",
"^  c #144432",
"/  c #114930",
"(  c #1C4C37",
")  c #174138",
"_  c #1A453A",
"`  c #1C4B3E",
"'  c #1A4337",
"]  c #065B30",
"[  c #1E543D",
"{  c #1F593D",
"}  c #155230",
"|  c #21563E",
" . c #215B3D",
".. c #2C4C2A",
"X. c #0A6126",
"o. c #04632B",
"O. c #0A642A",
"+. c #056B2E",
"@. c #0B6C2D",
"#. c #076127",
"$. c #12632C",
"%. c #106D2D",
"&. c #1A6629",
"*. c #05712F",
"=. c #0D712F",
"-. c #13732E",
";. c #046531",
":. c #096632",
">. c #036C33",
",. c #0A6C32",
"<. c #046E38",
"1. c #146A32",
"2. c #057335",
"3. c #0B7433",
"4. c #057A36",
"5. c #0C7A35",
"6. c #047539",
"7. c #0A7439",
"8. c #05793A",
"9. c #057C3C",
"0. c #0B7C3A",
"q. c #117431",
"w. c #127B34",
"e. c #127E39",
"r. c #187538",
"t. c #24633D",
"y. c #266B3C",
"u. c #296D3A",
"i. c #2B743C",
"p. c #2E7B3E",
"a. c #307E3C",
"s. c #6E4237",
"d. c #6C4338",
"f. c #724236",
"g. c #7B4637",
"h. c #734539",
"j. c #774B3A",
"k. c #7C4C3A",
"l. c #7D503A",
"z. c #1E5340",
"x. c #1F5842",
"c. c #205640",
"v. c #215C41",
"b. c #037D40",
"n. c #246442",
"m. c #266A42",
"M. c #286E41",
"N. c #277042",
"B. c #297442",
"V. c #2C7B43",
"C. c #854D3A",
"Z. c #854D3A",
"A. c #84503A",
"S. c #8C543C",
"D. c #91563D",
"F. c #945A3D",
"G. c #9B5F3E",
"H. c #9D6B3E",
"J. c #9B633E",
"K. c #A16A3E",
"L. c #A2713F",
"P. c #AB7740",
"I. c #06813E",
"U. c #0C833C",
"Y. c #0E893E",
"T. c #08873B",
"R. c #138136",
"E. c #12843A",
"W. c #138A3E",
"Q. c #19893A",
"!. c #15913F",
"~. c #2F803F",
"^. c #33843E",
"/. c #368A3E",
"(. c #388E3D",
"). c #3B9331",
"_. c #3E9B34",
"`. c #39943E",
"'. c #3D9D3E",
"]. c #37903F",
"[. c #3FA13E",
"{. c #409F33",
"}. c #42A332",
"|. c #45AD36",
" X c #41A43B",
".X c #44AB39",
"XX c #47B136",
"oX c #49B535",
"OX c #4BB934",
"+X c #46B038",
"@X c #058141",
"#X c #058442",
"$X c #098541",
"%X c #058944",
"&X c #0B8B43",
"*X c #078E48",
"=X c #118D41",
"-X c #0D9145",
";X c #07974D",
":X c #139243",
">X c #2E8143",
",X c #318441",
"<X c #358C41",
"1X c #388F40",
"2X c #379142",
"3X c #399441",
"4X c #3C9A41",
/* pixels */
"v K K +.U.U.o.c @.@.+.6.;.E.U.8.0.I U.Y.5.W.*X:XE.P 3.K >.@X<.>.>.Y +.9.$X3.P N o.Y.&X0.I o.o.E.8.3.U.&X7.I &.$X&X4.>.O.E.3.T.T.",
"Z 2.2.2.#.9.<.o.U.3.K <.>.>.8.Y >.8.8.2.2.W.&X$X8.K ;.;.Z K Y o.Y K @.+.8.2.2.o.3.W.@X6.6.@X6.0.6.o.;.2.K +.U.@X<.9.#X8.I.8.6.#X",
"6.6.@X8.Y 9.9.@X0.P P 6.o.K I v n #.o.P 2.8.6.;.5.9.$X5.n v v N v n =.>.2.9.<.2.E.5.9.Y.b.b.9.I.4.v U ;.n #.>.6.o.>.b.9.4.8.<.#X",
"K Y 8.,.n o.+.,.n + I Y K v + + z n m n 3.3.+ b E.8.9.@.n $.Z Z v N @.8.8.Y n O.U.2.o.@.5.P Y 0.3.z + n K v n Z K v K +.4.U.o.P ",
"P 3.3.K P +.n >.o.@ x O.Z n Y o.v n B N O.-.P 2.&X2.,.S 2 G G 2 1 $.3.0.3.#.E.Y.9.;.U Z Z m P +.v X.n v o.v Y v n K =.+.8.3.O.x ",
"2.0.5.K ,.+.n 3.9.;.m P U.0.6.2.K O.3.P @.P >.Y.0.S G i.p.i.p.p. .5 S ,.K o.0.6.;.F F F 2 F K Y n #.5.K >.2.2.o.n #.3.8.o.v Z @.",
"o.o.K Y 3.R.+.3.0.>.o.5.W.<.Y K ,.e.2.9.o.Y 5.T S '  .,X<XN.,X<XM.| ) < C U W J Q ).}.}.}.).J S :.3.U.5.>.U.>.4.+.e.2.9.Y K 8.4.",
"2.0.o.P R.E.@.#.R.@.K n P n Z n v =.9.T.o.P q.1 ) v.m.M.V. .m.,XV.n.c.( J Q ).}.}.oXOXXX[.4X^. .5 , T +.o.8.6.o.P E.8.2.K ;.:XW.",
"@XU.5.P P 0.P n 3.3.n v K Z K @.L Y 7.3.,.,.W ( [ ` v.n.M.i.| V.m. ./.}.{._. XoXoX|.'.3X>XV.t.G - - # O K #.K ;.e.W.9.0.v @ 5.:X",
"#XY +.5.P 9.>.o.+.3.0.I.>.Y Z T W J J J F Q ).`.^.| [ ` v.m.[ v. ./.XXXX[. XXXXX'.4X2XV.n.[ 1 ,.3.K K #.2.w.b B E.-X&X2.P o.+.U.",
"0.6.9.5.+.U.6.9.0.I.9.;.] F 1 J ).{._.}.}.}.oXoXXX`./.| [ v.` ` ^.XXXX'.'..XXX'.2X>XV.n.` _ G :.0.5.Y 2.I.5.P X.E.&X0.Y o.P +.5.",
"O.P +.K v 3.I K L 4.;.> G p.p./.[. X XOXOXOXoXXXXXXX.X2XB.[ _ | `.+X`.<X X[.3X>XV.n.v.` _ v.y.5 1 ,.K 2.0.5.U.U.0.5.P Y I B P 4.",
"O n 3.q.b @.I v v T G t.B.>X3X.X.X.X|.oXoXOXoX X'.'.3X3X1XN.c./..X`.,X3X4X2XV.m.v.` ` ` ` [ [ [  .G S ;.E.5.Y.5.3.@.m o.K 3.#.5.",
"+ P o.W.-.I 5.+.@ 1 { V.V.V.>X`.'.'.[.|.oXXXXX|..X4X,XN.V.V.m.3X3XN.1X2X>XV.n.x.` _ _ v.v.v.n.V.,Xp.u.} T o.8.@.+.#.w.5.#.E.w.I ",
"Y m K Y.@.z R.,.> ( { { |  .B.V.V.1X3X3X4X4X4X4X[..X4X,XM.N.M.<XV.M.<XN.N.m.n.| [ [ [ ` ` ` v.m.,X<XV.y.F :.9.I.2.o.E.U.0.U.@.v ",
"K q.#.0.>.#.4.:., 1 < 5 1 G [ v.n.m.m.V.V.1X2X1X3X4X3X>XB.m.B.V.M.,XV.m.m.V.1X1X1X`._.t.| | ` ` t.p.V.v.[ S <.&XY.6.2.o.;.I.+.Z ",
"n w.>.2.>.9.6.D K Y v Z L R G ` v.v.v.v.n.m.m.m.V.V.B.m.B.N.M.N.m.N.m.N.B.<X3X4X.XXXoX|.|._.| 8 5 (  .v.x.( 1 ;.8.T.2.K Y ;.<.9.",
"O.K o.o.5.+.2.o.P o.K K , G u.n.v.` ` ` ` x.v.v.n.n.m.m.m.m.M.m.n.n.n.m.m.m.M.,X3X'.|.OXOXoX/.J R , 5 { v.` < Z K E.Y.o.;.K E.W.",
"W.>.+.K E.5.2.2.P K 1 H u. .n.| [ ` v.c.` [ | | n.M.,XB.N.N.m.n.n.n.n.N.B.B.V.1X,X<X'.XXoXoXoX_.W R ;.S ' [ ' 1 ;.2.Y.6.I.3.W.w.",
"$X>.3.I E.W.+.5.;.G i.i.m.c.| p.p.v.` | | ,X3X1X1X<X<XN.m.m.B.N.n.n.N.M.B.V.<X3X3X X'.[.oXoXoXOX_.W Y >.1 5 ( 1 Y P >.0.&X2.&X0.",
"@X2.U.I.W.0.o.L G t.,XN.| p.p.,Xm.`  ._.`.'..X3X<XN.N.2X1XV.V.m.N.m.V.V.m.n.m.V.2X'..XoXoXoXoXXXoX_.W U K A > - > :.,.B E.&X%X6.",
"b.9.6.4.0.+.<.1  .V.B.>X^.,XM.n.` | _.OXoX.X`.N.B.1X`..X3X>XB.m.B.m.V.1XV.n.v.m.B.N.`.XXoXoXoX X[..X^.H K B @.O.> P K n 4.#X9.K ",
"Z o.K P +.P O.2 t.<X,X,X,XM.v.` | (.oXOX|.`.B.]..XoX.X`.>XB.n.n.V.B.m.V.2Xm.z.v.v.n.V.3X[.XXoX.X4X4X3Xa.W Y U.4.Y P Z P 4.2.;.X ",
"-.e.e.@.4.I G  .,X<X,XM.m.v.` [ /.XXoXoX'.V.`.XXOXXX'.>XB.n.z.n.V.<XM.V. X`.m.` ` v.n.V.1X4X4X4X4X3X,X3X^.} 7.9.>.2.#.5.W.8.8.c ",
"W.=XU.T 3.T G t.,X,Xm.v.` ` ` m.'.oXoXoXXX|.oXOXXX'.2XV.n.v.n.B.>X3X1XN.`.+X`.| _ ` v.n.m.V.>X2X3X3X2X<X2Xy.S ;.2.W.0.$XT.@XI.E ",
"U.6.6.@.3.1  .V.N.n.` ) 3 ) m.1X|.XXoXoXOXOXoXXX'.1XV.m.v.` n.V.>X'. XN.2XoXXX/.| ` ` ` v.n.B.V.>X2X3X1X>Xn.G T 5.9.I.o.6.6.$X$X",
"2.9.8.U.,.5  .m.| ' 3 > @ G ^.[..X XXXOXoXXX'.4X1XM.n.v.` ` v.B.>X|.|.p.3XoXoX[.,X` ` _ ` v.v.m.B.i.V.V.V.B.y.2 n K e.Y >.3.E.2.",
"#X9.2.Y 1 [ v._ 5 1 ;.Z , y.4X.X[.XXoXoXXX'.2X>XV.n.v.` _ ` n.B.,X|.OX.X'.XXOXXX3X| v.` ` ` ` v.[ / [ | | m.M.G C #.W.E.#.5.+.v ",
"9.2.5.K > _ ' 1 ,.2.%X,.G ^.4X4X4XXXXX'.4X2X>XB.n.v.` _ ` ` v.m.1X'.oXoX'.XXOXoX'.,X| v.v.` c.` 5 D S > 5 [ | ( S 2.&XE.q.E.4.o.",
"o.2.R.n > 7 1 :.2.6.9.S y.3X4X3X4X4X3X1X>XV.B.m.v.` _ ` v.` x.m.1X4XXXoX[.XXoXoXXX3X| v.m.v.[ v.{ S ] ;.;.S 1 1 > ;.6.<.2.X.>.9.",
"K Y ,.Z > G 0.=X3.P K < N.2X3X4X2X>XV.M.B.n.n.v.` _ ` v.n.` ` n.V.3XXXOXXX XXXOXoX`.[ ` m.m.v.x.n.{ F T 9.;.K C , w.>.P <.2.2.T.",
"2.5.P ;.D r.W.0.W.@.v 5 M.N.1X3X>XV.B.{ { v.v.x.v.` ` m.n.` ` v.m.3X[.oXXX'.XXOXoX3Xn.` m.V.M.v.[ m.u.F C v v O V Q.2.o.K 8.W.=X",
"$XQ.q.P v 5.P n q.,., t.m.B.>X>XV.y.{ 5 5 ' ` m.i.[ n.V.m.` ` [ m.1X4XoXXX XXXOXoX2Xn.` n.N.V.M.v.[ M.i., + n N e.=X9.0.K o.U.=X",
"3.,.3.3.N 4.+.K K T 2 y.m.V.V.M.{ G S C R ^ t.V.| v.N.,XM.v.) 4 { V.3XXXoXoXoXOX|.,Xv.` v.m.,X,XM.m.m.i.G v + P Y.-X*X6.#.+.#.$X",
"+ <.U.I.o.0.8.$X0.,.G  .V.B.{ G S ;.n P S  .,Xp.[ m.,X,Xm.{ 4 % 4 M.,X'.XXoXoXXX'.1Xn._ ` m.,X<X,X,XM.M.i.S K *.2.&X0.Y >.o.#.3.",
"X K U.W.3.8.4.e.b , [ n.M.[ / e.6.6.z @.H p.,X| v.M.,X,Xm.` : 9 : t.1X3X'.XX X.X4X3X .5 8 ` m.,X1X1X,XB.p.G ,.Y.I.6.K Y U.2.K B ",
"I @.5.=Xw.I e.@.@ < v.[ 2 G ,.:X%X&XT H i.1X^.[ m.,X,XM.v.) ; 0 ; [ V.2X4X.X4X4X4X^.G ;.~ 7 ` m.,X,X<X,X,Xi.H E.I.9.K n 3.I.;.2.",
"K 3.>.$X,.m @.W.7.1 ( S Z w.U.*X*X-X,.G a.1X,XM.,X1X,Xm.` : q p q 4 N.,X3X4X4X3X3Xi.S @X,.2 1 ' m.M.,X,XB.i.G 0.#X&XY.o.N >.;.#X",
"6.I.5.2.;.2.0.T.<.> 1 ,.2.P K 2.<.8.H i.1X,XN.,X<X,XM.v.) ; i j y : { V.2X4X3X,X3Xi.G 7.#.e.7.1 ' | M.V.M. .1 6.#X$XE.5.q.2.Z >.",
"U ,.I Z P <.>.+.;., U Y.5.v P <.o.<.G a.2X,XN.,X<XM.v._ 3 * y f h 9 4 N.,X3X3X>X1Xi.1 Z 5.0.2.,.1 5 { m.m.| 1 >.4.3.n K z K z n ",
"v n v n 3.E.#.O.w.c v #.K N o.I.*.;.G p.1X,X,X<X,Xm.` 1 T 0 d j s.y ; { V.2X3X>X>XN.> n @.;.;.;.b.7./ [ m. .> + -.O.N P K o.n q.",
"Z Y Y o.P 3.X.N R.@.n K K 5.I.-X0.1  .,X,XB.<X,XM.v.) , A a g.h.k.h 0 4 N.,X1XV.V.y.1 K P Y o.U.;X%X;.H |  .1 @ O.o.K 2.U.9.+.e.",
">.6.E.o.v 3.P v 3.2.>.<.o.W.0.U.0.< t.,XN.,X,XM.n.' 1 A e h l j h.l y ; { V.V.V.V. .1 6.+.>.+.E.E.P 5.0./ ( 1 3.$X4.>.>.W.5.I.T.",
"P +.P v v 8.>.P 0.0.Y 9.W.8.Y P ,.1 t.V.M.V.M.v.' < :.q.0 f.k.h.S.h.f u 4 { B.V.V.[ S ;.Y.T.+.z O + I 9.Y > < 6.6.I.9.>.T.9.<.$X",
"K m n 3.6.@X9.@XT.I B 4.<.n N K :.1  .m.m.m.n.' 1 ,.&Xe.& Z.k.f.H.S.l f u 4 n.V.y.G ;.E E.&X6.o.+ N 5.4.o.T D ;.o.2.6.<.4.9.b.%X",
"K v n 3.U.<.Y 8.2.+ x P P P w.o.,.2  .m.m.n._ G ,.+.2.r.a k S.S.k.h.j j g 4 [ B. .1 K -.+.9.6.*X4.+.o.4.>.K 3.@.O.o.2.o.>.K ,.<.",
"6.K N 3.P n K R.0.P K n O.3.:XR.O.1 | m.m.| 5 R +.5.3.e f l S.J.F.h.S.Z.a A 5 v.[ , Z n P >.<.%X8.>.K 2.3.N >.o.K P E.3.3.#.K v ",
"&X8.5.o.P K n 5.&X6.8.K +.E.:X5.K < _ m.n.) G O.K E.3.0 f.C.C.L.K.j.H.F.i A > ( 5 C o.o.2.o.n >.2.Y n K P 5.6.>.5.2.=XW.E.E.o.n ",
"b.9.E.-.3.2.K #.U.9.#X7.5.5.&X<.U S ' n.' G 0.4.P @.q.r Z.G.S.k.A.Z.k.H.k e b > > 3.9.8.U.@.n P P 2.Y Z K 2.I.9.&X&X&XT.E.w.E.2.",
"x b @.V #.#X0.5.6.;.6.9.+.w.6.o.8.7.2 ( G :.*X6.>.P T & f.J.h.C.D.F.S.j.h 0 E.0.D b.9.;.o.4.2.+.n o.6.#.O.0.@X<.>.W.U.0.Y.T.U.#X",
"x b +.P 2.U.+.@.n n n P =.v K n K %.> - @ 2.&X>.>.5.L & h s.h.D.J.K.H.h.g.s r.!.:.I.+.P P >.P v + +.>.=.P m K O Z R.K P >.+.3.Y.",
">.2.n n e.E.I I q.P z O K v O z m @.> 1 n B Q.o.n P M a Z.F.S.k.L.L.l.S.S.h ..w.P U.@.c P 4.0.K n O.@.N v x z . x e.2.2.L V R.:X",
"9.U.K v L e.L v w.e.K K n + O L w.:.S :.3.E.:X2.2.Z w f k.K.S.k k.k.k C.f.a r.2.o.o.n B o.0.5.#.m I P P Y v n N O.Y.@XU.3.q.2.&X",
"7.;.K 3.I 0.;.v K q.,.6.o.Y K @.E.8.Y n #.=X-X@X&XU.1.r h d.k.F.F.D.Z.l h e ,.Y >.o.n Y 0.+.X.K 3.O.n >.8.K v #.5.$X$X>.#.3.Z ;.",
"K ;.9.0.3.U.6.9.8.5.9.6.2.;.>.#.>.9.Z K 7.2.@X#XE.3.>.b r h S.P.P.D.h.h r $ = v O n 5.3.8.2.>.2.>.o.v 2.8.8.o.+.o.<.U.0.9.P Z Y ",
"3.o.Y v P 4.o.7.<.P ;.5.;.6.6.5.6.>.K o.K 2.9.6.o.@.K >.1.t j g.A.k p r ! K O.K   v w.I Y Z 6.@.K 3.6.2.#.Y o.5.o.Y K P U.>.Z K ",
"K n V %.P 3.X.x O n +.N v n K E.+.P v K #.Z v v v *.+.5.O.! t 0 a d 0 $.U.#.2.K v P q.2.2.+ n w.N n P K x n e.W.2.2.n z +.8.o.2.",
"+ N w.:Xw.X.5.@.n K +.v z N w.W.8.8.P R.W.K K n n +.P K Z ..r.2.1.w &.3.Y.e.K +.B 3.0.I.U.K N 5.N n Z n n I E.&X9.$X5.P n >.>.#X",
"+.+.#.=XE.K 5.3.P Y z + x w.W.&X#XU.,.5.U.<.9.R.w.3.K K o.O.$X%X@XT E.I.9.0.Z >.e.0.T.2.o.K 3.3.n >.<.K I o.>.$Xb.6.>.3.,.3.K >.",
"#.E.8.$X<.Y P #.8.7.z K + q.3.@X6.2.o.o.6.6.#XU.2.P +.2.5.>.8.E.6.6.+.I.9.o.6.#XI.2.9.K K 6.P n P >.@XU.>.Z 3.R.K Z >.Y z c v o ",
">.5.8.2.Y <.2.5.9.<.;.5.P v ;.<.K Y K 2.6.Y 2.I.o.2.8.2.9.4.=.v K o.P >.K K 3.o.P >.o.v 6.w.+ P 5.2.2.E.+.v +.N O K %.P N n n . ",
"n 2.K n n n Z o.6.Y <.Y.3.+ v K v o.3.+.n Z K =.2.+.K Y 2.>.n v N 3.o.2.n v +.n + v + n 5.n z K 0.3.K w.P K n v I =.m K v n b b ",
". 3.@.+ n -.K #.5.P K o.P z n ,.K +.2.2.o.<.o.3.U.>.n T Z K P =.o.=XE.q.3.K 3.,.z L O O P P K K #.v v R.2.5.#.K w.O.v P n Y K w.",
"X I M b + O.I n R.3.n n v -.U.Y.5.#.2.>.>.#X$XE.@.3.n K   K ;.2.3.&X5.m @.E.3.Z v @.X O + n >.@.Z O m U.$X&X5.n K K n 2.U.6.o.%."
};
